<?xml version="1.0" standalone="no"?>
<!DOCTYPE svg PUBLIC "-//W3C//DTD SVG 1.1//EN" "http://www.w3.org/Graphics/SVG/1.1/DTD/svg11.dtd" >
<svg xmlns="http://www.w3.org/2000/svg" xmlns:xlink="http://www.w3.org/1999/xlink" version="1.1">
<metadata>
Created by FontForge 20150715 at Fri Sep 18 23:40:47 2015
 By Jimmy Wärting
Copyright (c) 2010 by Sergio Rami'rez. All rights reserved.
</metadata>
<defs>
<font id="Systopie" horiz-adv-x="564" >
  <font-face 
    font-family="Systopie"
    font-weight="400"
    font-stretch="normal"
    units-per-em="1000"
    panose-1="2 0 5 6 0 0 0 2 0 4"
    ascent="764"
    descent="-236"
    x-height="527"
    cap-height="714"
    bbox="-94 -238 1171 1012"
    underline-thickness="50"
    underline-position="-100"
    unicode-range="U+000D-2122"
  />
<missing-glyph horiz-adv-x="0" 
 />
    <glyph glyph-name=".notdef" horiz-adv-x="0" 
 />
    <glyph glyph-name="dollar" unicode="$" 
d="M235 713v103c0 23 11 35 34 35h60v-137h162v-67c0 -23 -12 -35 -35 -35h-152c-137 0 -146 -18 -146 -119v-49l255 -54c76 -16 103 -49 103 -169c0 -161 -60 -208 -204 -219v-104c0 -23 -12 -34 -35 -34h-59v136h-170v68c0 23 11 34 34 34h162c152 0 162 17 162 119v67
l-232 47c-89 19 -126 37 -126 158c0 160 47 209 187 220z" />
    <glyph glyph-name="percent" unicode="%" horiz-adv-x="505" 
d="M442 601l-291 -559c-19 -36 -43 -42 -68 -42h-35v50c0 27 4 39 16 64l291 558c19 36 42 42 67 42h35v-49c0 -27 -3 -40 -15 -64zM329 110h77c24 0 33 -9 33 -33v-77h-75c-23 0 -35 11 -35 34v76zM100 714h76v-77c0 -22 -11 -33 -34 -33h-76v76c0 23 11 34 34 34z" />
    <glyph glyph-name="ampersand" unicode="&#x26;" horiz-adv-x="673" 
d="M439 612h-235l95 -155c28 -47 17 -79 -19 -98l-130 -64v-48c0 -140 9 -154 153 -154c127 0 136 9 136 163v25c0 101 43 136 128 136h76v-68c0 -23 -11 -34 -34 -34h-59v-60c0 -187 -26 -264 -247 -264c-220 0 -255 60 -255 256c0 103 39 124 102 155l52 26l-77 126
c-53 85 -16 160 76 160h272v-68c0 -23 -11 -34 -34 -34z" />
    <glyph glyph-name="quotesingle" unicode="'" horiz-adv-x="205" 
d="M100 701h57l-8 -191c-1 -41 -16 -50 -51 -50h-40l-9 190c-3 41 10 51 51 51z" />
    <glyph glyph-name="parenleft" unicode="(" horiz-adv-x="326" 
d="M146 502v-494c0 -87 26 -110 111 -110c24 0 33 -11 33 -35v-67h-50c-145 0 -204 41 -204 212v494c0 171 59 212 204 212h50v-68c0 -23 -9 -34 -33 -34c-85 0 -111 -23 -111 -110z" />
    <glyph glyph-name="parenright" unicode=")" horiz-adv-x="326" 
d="M180 8v494c0 87 -26 110 -111 110c-24 0 -33 11 -33 34v68h50c145 0 204 -41 204 -212v-494c0 -171 -59 -212 -204 -212h-50v67c0 24 9 35 33 35c85 0 111 23 111 110z" />
    <glyph glyph-name="asterisk" unicode="*" horiz-adv-x="462" 
d="M83 714h89l-39 118l57 18c32 8 32 8 43 -22l27 -85l100 72l35 -48c19 -25 18 -28 -9 -47l-70 -53l98 -72l-35 -48c-19 -27 -22 -26 -47 -7l-72 52l-38 -117l-56 18c-32 11 -33 12 -22 43l28 84h-124v60c0 33 3 34 35 34z" />
    <glyph glyph-name="plus" unicode="+" horiz-adv-x="410" 
d="M329 264h-77v-128h-59c-23 0 -35 11 -35 34v94h-110v59c0 23 11 35 34 35h76v127h60c23 0 34 -11 34 -34v-93h110v-60c0 -24 -9 -34 -33 -34z" />
    <glyph glyph-name="comma" unicode="," horiz-adv-x="182" 
d="M70 110h76v-93c0 -23 -7 -40 -14 -52l-29 -50c-7 -13 -17 -17 -33 -17h-34v179c0 22 11 33 34 33z" />
    <glyph glyph-name="hyphen" unicode="-" horiz-adv-x="394" 
d="M312 264h-264v59c0 23 12 35 35 35h263v-60c0 -23 -11 -34 -34 -34z" />
    <glyph glyph-name="period" unicode="." horiz-adv-x="182" 
d="M71 110h75v-76c0 -24 -9 -34 -33 -34h-77v77c0 22 12 33 35 33z" />
    <glyph glyph-name="slash" unicode="/" horiz-adv-x="505" 
d="M442 601l-291 -559c-19 -36 -43 -42 -68 -42h-35v50c0 27 4 39 16 64l291 558c19 36 42 42 67 42h35v-49c0 -27 -3 -40 -15 -64z" />
    <glyph glyph-name="zero" unicode="0" horiz-adv-x="623" 
d="M311 722c211 0 264 -79 264 -348c0 -303 -53 -382 -264 -382s-263 79 -263 382c0 269 52 348 263 348zM311 85c137 0 153 9 153 289c0 248 -16 255 -153 255c-136 0 -153 -7 -153 -255c0 -280 17 -289 153 -289z" />
    <glyph glyph-name="one" unicode="1" horiz-adv-x="331" 
d="M40 714h187c23 0 34 -11 34 -34v-680h-77c-23 0 -34 11 -34 34v578h-76c-23 0 -34 11 -34 34v68z" />
    <glyph glyph-name="two" unicode="2" horiz-adv-x="576" 
d="M279 612h-170c-23 0 -34 11 -34 34v68h204c187 0 247 -41 247 -204c0 -89 -23 -122 -106 -157l-260 -114v-137h332c23 0 34 -11 34 -34v-68h-425c-41 0 -51 10 -51 51v136c0 89 25 125 126 170l239 104v49c0 85 -17 102 -136 102z" />
    <glyph glyph-name="three" unicode="3" horiz-adv-x="576" 
d="M370 612h-269c-23 0 -34 11 -34 34v68h391c23 0 34 -11 34 -34v-68l-137 -193l69 -17c69 -16 102 -55 102 -155c0 -179 -34 -247 -289 -247h-187v68c0 20 13 34 34 34h153c179 0 187 22 187 145v57l-164 40c-25 7 -37 24 -37 44c0 13 4 25 13 36z" />
    <glyph glyph-name="four" unicode="4" horiz-adv-x="606" 
d="M371 272v334l-213 -334h213zM354 714h94c22 0 33 -11 33 -34v-408h42c23 0 35 -11 35 -34v-68h-77v-136c0 -23 -11 -34 -33 -34h-77v170h-306c-23 0 -35 11 -35 34v60l270 424c11 16 23 26 54 26z" />
    <glyph glyph-name="five" unicode="5" horiz-adv-x="561" 
d="M400 307l-289 48c-51 9 -65 37 -58 84l36 249c3 17 16 26 39 26h357v-68c0 -23 -11 -34 -34 -34h-270l-23 -161l191 -32c135 -21 162 -55 162 -207c0 -204 -94 -212 -247 -212h-204v68c0 23 11 34 34 34h170c127 0 136 9 136 110v95z" />
    <glyph glyph-name="six" unicode="6" horiz-adv-x="610" 
d="M309 93c124 0 141 10 141 136c0 127 -17 136 -145 136c-116 0 -144 -18 -144 -135c0 -115 25 -137 148 -137zM475 612h-51c-246 0 -263 -17 -263 -178v-51l16 33c13 27 27 44 162 44c171 0 221 -44 221 -231c0 -211 -85 -238 -255 -238c-204 0 -255 68 -255 357
c0 315 43 366 374 366h85v-68c0 -23 -11 -34 -34 -34z" />
    <glyph glyph-name="seven" unicode="7" horiz-adv-x="554" 
d="M48 714h425c24 0 33 -10 33 -34v-68l-212 -413v-165c0 -23 -11 -34 -34 -34h-76v169c0 35 7 54 26 90l181 353h-309c-23 0 -34 12 -34 35v67z" />
    <glyph glyph-name="eight" unicode="8" horiz-adv-x="589" 
d="M294 416c110 0 128 17 128 102c0 77 0 102 -128 102c-127 0 -127 -25 -127 -102c0 -85 18 -102 127 -102zM294 323c-127 0 -136 -27 -136 -112c0 -93 9 -119 136 -119c128 0 137 26 137 119c0 85 -9 112 -137 112zM541 211c0 -144 -43 -219 -247 -219
c-205 0 -246 75 -246 219c0 72 30 132 94 163c-55 23 -86 80 -86 144c0 129 42 204 238 204s239 -75 239 -204c0 -64 -33 -121 -85 -144c63 -31 93 -91 93 -163z" />
    <glyph glyph-name="nine" unicode="9" horiz-adv-x="594" 
d="M297 621c-129 0 -136 -18 -136 -135s7 -138 136 -138c125 0 136 12 136 128s-9 145 -136 145zM118 102h34c271 0 281 8 281 161v60l-17 -33c-13 -26 -44 -44 -153 -44c-145 0 -213 52 -213 223c0 194 68 254 238 254c213 0 256 -51 256 -358c0 -331 -35 -365 -392 -365
h-68v68c0 23 11 34 34 34z" />
    <glyph glyph-name="colon" unicode=":" horiz-adv-x="215" 
d="M56 110h76c23 0 35 -11 35 -33v-77h-77c-23 0 -34 11 -34 34v76zM82 433h76v-75c0 -24 -9 -35 -33 -35h-77v77c0 24 11 33 34 33z" />
    <glyph glyph-name="semicolon" unicode=";" horiz-adv-x="206" 
d="M82 110h76v-93c0 -23 -7 -40 -14 -52l-29 -50c-7 -13 -17 -17 -33 -17h-34v179c0 22 11 33 34 33zM82 433h76v-75c0 -23 -11 -35 -33 -35h-77v77c0 24 10 33 34 33z" />
    <glyph glyph-name="less" unicode="&#x3c;" horiz-adv-x="538" 
d="M155 334v-4l294 -149c24 -13 41 -33 41 -57v-51h-50c-32 0 -45 6 -81 27l-276 153c-24 15 -35 45 -35 78c0 35 11 63 35 78l276 155c36 19 49 26 81 26h50v-50c0 -24 -17 -43 -41 -58z" />
    <glyph glyph-name="equal" unicode="=" horiz-adv-x="412" 
d="M329 170h-281v59c0 23 12 35 35 35h281v-60c0 -23 -12 -34 -35 -34zM329 374h-281v59c0 23 12 35 35 35h281v-60c0 -23 -12 -34 -35 -34z" />
    <glyph glyph-name="greater" unicode="&#x3e;" horiz-adv-x="538" 
d="M383 330v4l-294 148c-24 15 -41 34 -41 58v50h50c32 0 45 -7 81 -26l276 -155c24 -15 35 -43 35 -78c0 -33 -11 -63 -35 -78l-276 -153c-36 -21 -49 -27 -81 -27h-50v51c0 24 17 44 41 57z" />
    <glyph glyph-name="question" unicode="?" horiz-adv-x="563" 
d="M192 0v204c0 43 10 59 34 80l141 129c23 21 37 50 37 97c0 93 -9 110 -118 110c-129 0 -136 -17 -136 -110c0 -25 -8 -34 -35 -34h-67v68c0 120 42 178 238 178c178 0 229 -58 229 -212c0 -86 -22 -126 -67 -168l-154 -139v-169c0 -23 -11 -34 -34 -34h-68z" />
    <glyph glyph-name="at" unicode="@" horiz-adv-x="736" 
d="M342 187c0 -68 12 -102 85 -102c143 0 169 8 169 179h-186c-60 0 -68 -34 -68 -77zM436 -110h212c23 0 35 -11 35 -34v-60h-247c-285 0 -400 65 -400 374c0 297 72 383 349 383c237 0 315 -53 315 -281v-51c0 -187 -101 -229 -248 -229c-169 0 -204 68 -204 187v25
c0 101 69 145 154 145c37 0 94 -3 103 -3l87 -6c-5 87 -22 120 -207 120c-209 0 -239 -42 -239 -290c0 -243 58 -280 290 -280z" />
    <glyph glyph-name="A" unicode="A" horiz-adv-x="683" 
d="M48 0v52c0 21 1 37 8 58l179 554c16 45 24 50 106 50c81 0 91 -5 107 -50l178 -554c8 -21 9 -37 9 -58v-52h-42c-50 0 -58 12 -69 52l-39 127h-287l-40 -127c-13 -40 -17 -52 -68 -52h-42zM227 272h229l-108 348h-13z" />
    <glyph glyph-name="B" unicode="B" horiz-adv-x="615" 
d="M99 714h220c179 0 231 -46 231 -196c0 -92 -26 -134 -94 -146c69 -19 111 -59 111 -176c0 -154 -77 -196 -230 -196h-272v680c0 23 11 34 34 34zM354 323h-179v-221h162c111 0 119 12 119 107c0 93 -8 114 -102 114zM319 612h-144v-196h162c94 0 102 10 102 102
c0 76 -8 94 -120 94z" />
    <glyph glyph-name="C" unicode="C" horiz-adv-x="547" 
d="M473 612h-25c-272 0 -289 -8 -289 -246v-17c0 -240 17 -247 289 -247h25c23 0 34 -11 34 -34v-68h-76c-329 0 -383 45 -383 349v17c0 304 54 348 383 348h76v-68c0 -23 -11 -34 -34 -34z" />
    <glyph glyph-name="D" unicode="D" horiz-adv-x="624" 
d="M100 714h169c192 0 307 -46 307 -314v-86c0 -268 -115 -314 -307 -314h-204v680c0 23 12 34 35 34zM269 612h-94v-510h94c162 0 196 25 196 212v86c0 187 -34 212 -196 212z" />
    <glyph glyph-name="E" unicode="E" horiz-adv-x="558" 
d="M99 714h399v-68c0 -23 -9 -34 -33 -34h-290v-187h306v-67c0 -23 -11 -35 -34 -35h-272v-221h323v-68c0 -24 -9 -34 -33 -34h-400v680c0 23 11 34 34 34z" />
    <glyph glyph-name="F" unicode="F" horiz-adv-x="529" 
d="M99 714h382v-68c0 -23 -9 -34 -33 -34h-273v-187h290v-67c0 -23 -11 -35 -34 -35h-256v-273c0 -40 -9 -50 -50 -50h-60v680c0 23 11 34 34 34z" />
    <glyph glyph-name="G" unicode="G" horiz-adv-x="610" 
d="M48 315v51c0 304 54 348 383 348h85v-68c0 -23 -11 -34 -34 -34h-34c-272 0 -289 -8 -289 -246v-51c0 -204 17 -222 153 -222c60 0 103 15 128 34v230c0 23 11 34 34 34h76v-263c0 -44 -6 -51 -33 -72c-43 -33 -119 -65 -222 -65c-176 0 -247 54 -247 324z" />
    <glyph glyph-name="H" unicode="H" horiz-adv-x="615" 
d="M550 680v-680h-77c-23 0 -34 11 -34 34v280h-264v-314h-76c-23 0 -34 11 -34 34v680h77c22 0 33 -11 33 -34v-264h264v298h76c23 0 35 -11 35 -34z" />
    <glyph glyph-name="I" unicode="I" horiz-adv-x="240" 
d="M65 0v680c0 23 11 34 34 34h76v-680c0 -23 -11 -34 -34 -34h-76z" />
    <glyph glyph-name="J" unicode="J" horiz-adv-x="526" 
d="M466 714v-510c0 -168 -54 -212 -214 -212c-158 0 -204 46 -204 195v51h68c23 0 34 -11 34 -34c0 -101 17 -110 102 -110s102 9 102 110v476c0 23 12 34 35 34h77z" />
    <glyph glyph-name="K" unicode="K" horiz-adv-x="571" 
d="M65 0v680c0 23 11 34 34 34h76v-314h6l233 280c24 32 31 34 63 34h50v-50c0 -35 -10 -52 -25 -69l-222 -235l237 -250c15 -15 18 -28 18 -60v-50h-42c-28 0 -42 2 -62 26l-250 288h-6v-280c0 -24 -9 -34 -33 -34h-77z" />
    <glyph glyph-name="L" unicode="L" horiz-adv-x="521" 
d="M481 0h-382c-23 0 -34 11 -34 34v680h77c22 0 33 -11 33 -34v-578h273c24 0 33 -11 33 -34v-68z" />
    <glyph glyph-name="M" unicode="M" horiz-adv-x="793" 
d="M397 211l187 503h110c23 0 34 -11 34 -34v-680h-76c-23 0 -34 11 -34 34v476l-168 -452c-5 -11 -18 -17 -53 -17s-49 6 -53 17l-168 452v-476c0 -23 -12 -34 -35 -34h-76v680c0 23 11 34 34 34h110z" />
    <glyph glyph-name="N" unicode="N" horiz-adv-x="674" 
d="M498 145v535c0 23 12 34 35 34h76v-714h-119c-35 0 -43 7 -52 26l-263 544v-536c0 -23 -11 -34 -33 -34h-77v714h119c33 0 43 -7 51 -26z" />
    <glyph glyph-name="O" unicode="O" horiz-adv-x="624" 
d="M312 722c193 0 264 -54 264 -322v-86c0 -268 -71 -322 -264 -322s-264 54 -264 322v86c0 268 71 322 264 322zM466 314v86c0 204 -18 220 -154 220c-137 0 -152 -16 -152 -220v-86c0 -204 15 -220 152 -220c136 0 154 16 154 220z" />
    <glyph glyph-name="P" unicode="P" horiz-adv-x="598" 
d="M100 714h221c187 0 229 -62 229 -238s-42 -238 -229 -238h-146v-204c0 -24 -9 -34 -33 -34h-77v680c0 23 12 34 35 34zM321 612h-146v-272h146c109 0 118 16 118 136c0 119 -9 136 -118 136z" />
    <glyph glyph-name="Q" unicode="Q" horiz-adv-x="658" 
d="M496 102h79c23 0 35 -11 35 -34v-68h-162c-35 0 -69 -8 -136 -8c-193 0 -264 54 -264 322v86c0 268 71 322 264 322c192 0 263 -54 263 -322v-86c0 -112 -16 -187 -79 -212zM464 314v86c0 204 -16 220 -152 220s-154 -16 -154 -220v-86c0 -204 18 -220 154 -220
s152 16 152 220z" />
    <glyph glyph-name="R" unicode="R" horiz-adv-x="598" 
d="M99 714h220c188 0 231 -71 231 -229c0 -129 -29 -198 -138 -222l91 -157c11 -20 22 -37 22 -64v-42h-52c-24 0 -42 10 -53 29l-125 227h-120v-222c0 -23 -11 -34 -33 -34h-77v680c0 23 11 34 34 34zM319 612h-144v-254h144c112 0 120 25 120 127c0 101 -8 127 -120 127z
" />
    <glyph glyph-name="S" unicode="S" 
d="M82 102h162c152 0 162 17 162 119v67l-232 47c-89 19 -126 37 -126 158c0 185 62 221 254 221h188v-67c0 -23 -11 -35 -34 -35h-154c-135 0 -144 -18 -144 -119v-49l255 -54c76 -16 103 -49 103 -169c0 -184 -80 -221 -272 -221h-196v68c0 23 11 34 34 34z" />
    <glyph glyph-name="T" unicode="T" horiz-adv-x="582" 
d="M232 0v612h-196v68c0 23 11 34 34 34h476v-67c0 -23 -12 -35 -35 -35h-169v-578c0 -23 -12 -34 -35 -34h-75z" />
    <glyph glyph-name="U" unicode="U" horiz-adv-x="613" 
d="M306 -8c-192 0 -246 62 -246 246v476h77c24 0 33 -10 33 -34v-442c0 -136 9 -144 136 -144c128 0 137 8 137 144v442c0 24 9 34 33 34h77v-476c0 -184 -54 -246 -247 -246z" />
    <glyph glyph-name="V" unicode="V" horiz-adv-x="683" 
d="M342 0c-81 0 -84 5 -100 50l-184 554c-8 21 -10 37 -10 60v50h43c50 0 56 -13 69 -50l176 -570h12l176 570c11 37 21 50 69 50h42v-50c0 -23 -1 -39 -9 -60l-184 -554c-16 -45 -19 -50 -100 -50z" />
    <glyph glyph-name="W" unicode="W" horiz-adv-x="912" 
d="M48 664v50h43c50 0 59 -11 67 -50l101 -570h4l99 382c8 32 28 42 94 42c67 0 87 -10 95 -42l99 -382h4l100 570c7 39 19 50 68 50h42v-50c0 -23 -1 -45 -4 -60l-106 -545c-11 -47 -34 -59 -98 -59c-72 0 -93 11 -106 59l-94 353l-94 -353c-13 -48 -33 -59 -105 -59
c-64 0 -88 12 -99 59l-105 545c-4 15 -5 37 -5 60z" />
    <glyph glyph-name="X" unicode="X" horiz-adv-x="641" 
d="M62 92l191 278l-174 253c-8 11 -14 25 -14 41v50h51c23 0 42 -10 53 -25l151 -238l152 238c11 15 31 25 52 25h52v-50c0 -16 -6 -30 -14 -41l-174 -253l190 -278c10 -13 15 -27 15 -40v-52h-52c-21 0 -42 10 -53 26l-168 263l-168 -263c-11 -16 -31 -26 -52 -26h-52v52
c0 15 6 28 14 40z" />
    <glyph glyph-name="Y" unicode="Y" horiz-adv-x="642" 
d="M376 277v-243c0 -23 -11 -34 -34 -34h-76v277l-212 346c-7 12 -14 25 -14 41v50h52c21 0 38 -1 49 -20l180 -321l181 321c11 19 25 20 48 20h52v-50c0 -16 -6 -29 -15 -41z" />
    <glyph glyph-name="Z" unicode="Z" horiz-adv-x="572" 
d="M524 621l-347 -519h313c23 0 34 -11 34 -34v-68h-442c-23 0 -34 11 -34 34v59l348 519h-297c-23 0 -34 11 -34 34v68h425c23 0 34 -11 34 -34v-59z" />
    <glyph glyph-name="bracketleft" unicode="[" horiz-adv-x="335" 
d="M70 714h229v-68c0 -23 -11 -34 -34 -34h-119v-714h119c23 0 34 -12 34 -35v-67h-229c-23 0 -34 11 -34 34v850c0 23 11 34 34 34z" />
    <glyph glyph-name="backslash" unicode="\" horiz-adv-x="457" 
d="M330 42l-291 559c-12 24 -15 37 -15 64v49h35c25 0 48 -6 67 -42l291 -558c12 -25 16 -37 16 -64v-50h-35c-25 0 -49 6 -68 42z" />
    <glyph glyph-name="bracketright" unicode="]" horiz-adv-x="335" 
d="M36 714h229c23 0 34 -11 34 -34v-850c0 -23 -11 -34 -34 -34h-229v67c0 23 11 35 34 35h119v714h-119c-23 0 -34 11 -34 34v68z" />
    <glyph glyph-name="asciicircum" unicode="^" horiz-adv-x="396" 
d="M256 793l85 -86c15 -15 19 -23 19 -52v-43h-52c-20 0 -23 5 -42 29l-68 93l-68 -93c-19 -24 -22 -29 -42 -29h-52v43c0 29 4 37 19 52l85 86c11 11 17 15 50 15h16c33 0 39 -4 50 -15z" />
    <glyph glyph-name="underscore" unicode="_" horiz-adv-x="479" 
d="M431 -94h-349c-23 0 -34 11 -34 34v60h348c23 0 35 -11 35 -34v-60z" />
    <glyph glyph-name="grave" unicode="`" horiz-adv-x="242" 
d="M136 626l-85 78c-16 15 -19 22 -19 53v51h51c21 0 25 -4 42 -29l64 -91c11 -15 13 -21 13 -41v-35h-34c-15 0 -21 5 -32 14z" />
    <glyph glyph-name="a" unicode="a" horiz-adv-x="534" 
d="M142 161c0 -68 11 -85 94 -85c105 0 136 34 136 102v60h-153c-60 0 -77 -9 -77 -77zM474 297v-297h-60c-24 0 -29 10 -34 34l-8 40l-20 -40c-16 -35 -48 -43 -133 -43c-120 0 -171 34 -171 170v26c0 101 42 136 137 136c51 0 129 -4 181 -9c0 108 -25 119 -122 119h-128
c-23 0 -34 11 -34 34v60h162c179 0 230 -42 230 -230z" />
    <glyph glyph-name="b" unicode="b" horiz-adv-x="567" 
d="M409 263c0 171 -21 179 -128 179c-106 0 -110 -42 -110 -170v-17c0 -136 21 -170 110 -170c107 0 128 8 128 178zM60 255v476h77c23 0 34 -11 34 -34v-253l23 47c13 27 36 44 121 44c152 0 204 -51 204 -272s-51 -272 -238 -272c-144 0 -221 43 -221 264z" />
    <glyph glyph-name="c" unicode="c" horiz-adv-x="458" 
d="M423 0h-94c-230 0 -281 42 -281 263s52 264 281 264h94v-60c0 -23 -11 -34 -34 -34h-60c-160 0 -179 -8 -179 -170c0 -161 19 -170 179 -170h60c23 0 34 -11 34 -34v-59z" />
    <glyph glyph-name="d" unicode="d" horiz-adv-x="567" 
d="M158 263c0 -170 21 -178 128 -178c91 0 111 34 111 170v17c0 128 -20 170 -111 170c-107 0 -128 -8 -128 -179zM405 91l-23 -47c-22 -41 -43 -53 -130 -53c-152 0 -204 51 -204 272s52 272 204 272c93 0 109 -17 122 -44l23 -47v287h76c23 0 34 -11 34 -34v-697h-59
c-24 0 -31 10 -34 34z" />
    <glyph glyph-name="e" unicode="e" horiz-adv-x="512" 
d="M151 314h211v17c0 94 -10 111 -102 111c-89 0 -106 -11 -109 -128zM431 229h-280c3 -128 25 -135 161 -135h102c23 0 34 -12 34 -35v-59h-153c-213 0 -247 95 -247 263c0 205 59 272 212 272c137 0 204 -50 204 -221v-51c0 -24 -9 -34 -33 -34z" />
    <glyph glyph-name="f" unicode="f" horiz-adv-x="347" 
d="M204 527h119v-59c0 -23 -12 -35 -35 -35h-84v-399c0 -23 -12 -34 -35 -34h-67v433h-67v60c0 23 11 34 34 34h33c0 152 25 204 152 204h69v-59c0 -23 -12 -35 -35 -35c-84 0 -84 -6 -84 -110z" />
    <glyph glyph-name="g" unicode="g" horiz-adv-x="566" 
d="M158 263c0 -170 21 -178 127 -178c91 0 111 42 111 170v17c0 136 -20 170 -111 170c-106 0 -127 -8 -127 -179zM396 51v32l-23 -47c-13 -28 -29 -45 -122 -45c-152 0 -204 51 -204 272s52 272 204 272c87 0 108 -12 130 -53l23 -47l9 58c4 24 9 34 34 34h59v-476
c0 -170 -34 -255 -246 -255h-153v59c0 23 11 34 34 34h119c116 0 136 14 136 162z" />
    <glyph glyph-name="h" unicode="h" horiz-adv-x="571" 
d="M170 314v-314h-76c-23 0 -34 11 -34 34v697h76c23 0 34 -11 34 -34v-236l15 30c13 27 36 44 139 44c136 0 187 -34 187 -178v-357h-77c-23 0 -34 11 -34 34v323c0 68 -21 85 -102 85c-107 0 -128 -35 -128 -128z" />
    <glyph glyph-name="i" unicode="i" horiz-adv-x="230" 
d="M170 493v-493h-76c-23 0 -34 11 -34 34v493h76c23 0 34 -11 34 -34z" />
    <glyph glyph-name="j" unicode="j" horiz-adv-x="242" 
d="M72 17v476c0 23 12 34 35 34h75v-510c0 -136 -32 -221 -195 -221h-51v59c0 23 11 35 34 35c94 0 102 7 102 127z" />
    <glyph glyph-name="k" unicode="k" horiz-adv-x="491" 
d="M60 0v697c0 23 11 34 34 34h76v-417h6l177 197c12 13 18 16 33 16h60v-59c0 -18 -5 -32 -15 -42l-165 -151l177 -183c8 -7 12 -18 12 -33v-59h-60c-16 0 -27 1 -42 20l-177 218h-6v-204c0 -24 -9 -34 -33 -34h-77z" />
    <glyph glyph-name="l" unicode="l" horiz-adv-x="292" 
d="M170 697v-527c0 -70 9 -76 52 -76c23 0 34 -11 34 -34v-60h-51c-120 0 -145 53 -145 170v561h77c24 0 33 -10 33 -34z" />
    <glyph glyph-name="m" unicode="m" horiz-adv-x="843" 
d="M366 34v323c0 77 -12 85 -93 85c-90 0 -102 -34 -102 -111v-331h-77c-23 0 -34 11 -34 34v493h60c24 0 30 -10 34 -34l8 -49l23 47c13 27 29 44 113 44c120 0 139 -20 163 -89l23 45c19 34 35 44 129 44c153 0 170 -42 170 -178v-357h-77c-23 0 -34 11 -34 34v323
c0 77 -12 85 -85 85c-89 0 -110 -17 -110 -111v-331h-77c-23 0 -34 11 -34 34z" />
    <glyph glyph-name="n" unicode="n" horiz-adv-x="570" 
d="M400 34v323c0 68 -13 85 -102 85c-107 0 -128 -35 -128 -128v-314h-76c-23 0 -34 11 -34 34v493h59c24 0 30 -10 34 -34l9 -49l23 47c13 27 37 44 138 44c144 0 187 -34 187 -178v-357h-76c-23 0 -34 11 -34 34z" />
    <glyph glyph-name="o" unicode="o" horiz-adv-x="538" 
d="M269 442c-111 0 -119 -16 -119 -179c0 -161 8 -178 119 -178c110 0 119 17 119 178c0 163 -9 179 -119 179zM269 -8c-179 0 -221 51 -221 271c0 221 42 272 221 272s221 -51 221 -272c0 -220 -42 -271 -221 -271z" />
    <glyph glyph-name="p" unicode="p" horiz-adv-x="568" 
d="M409 263c0 171 -21 179 -128 179c-89 0 -110 -34 -110 -170v-17c0 -128 21 -170 110 -170c107 0 128 8 128 178zM162 435l23 47c19 41 45 53 130 53c154 0 205 -51 205 -272s-51 -272 -205 -272c-93 0 -108 17 -121 45l-23 47v-287h-77c-23 0 -34 11 -34 34v697h60
c24 0 30 -10 34 -34z" />
    <glyph glyph-name="q" unicode="q" horiz-adv-x="567" 
d="M158 263c0 -170 21 -178 128 -178c89 0 110 42 110 170v17c0 136 -21 170 -110 170c-107 0 -128 -8 -128 -179zM382 482l23 -47l8 58c4 24 10 34 34 34h60v-697c0 -23 -11 -34 -34 -34h-77v287l-23 -47c-13 -28 -28 -45 -121 -45c-152 0 -204 51 -204 272s52 272 204 272
c87 0 108 -12 130 -53z" />
    <glyph glyph-name="r" unicode="r" horiz-adv-x="395" 
d="M154 493l8 -52l23 47c13 27 33 39 96 39h94v-60c0 -23 -11 -34 -34 -34h-68c-77 0 -102 -34 -102 -134v-299h-77c-23 0 -34 11 -34 34v493h60c24 0 30 -10 34 -34z" />
    <glyph glyph-name="s" unicode="s" horiz-adv-x="470" 
d="M48 374c0 101 52 153 187 153h171v-59c0 -23 -11 -35 -34 -35h-137c-71 0 -93 -14 -93 -59v-38l168 -37c103 -24 112 -56 112 -147c0 -93 -50 -152 -187 -152h-187v59c0 23 12 35 35 35h152c72 0 94 14 94 67v38l-167 37c-103 24 -114 53 -114 138z" />
    <glyph glyph-name="t" unicode="t" horiz-adv-x="342" 
d="M170 433v-229c0 -104 10 -110 102 -110c23 0 34 -12 34 -35v-59h-67c-154 0 -179 67 -179 204v460h77c22 0 33 -12 33 -35v-102h128v-59c0 -23 -11 -35 -34 -35h-94z" />
    <glyph glyph-name="u" unicode="u" horiz-adv-x="554" 
d="M171 493v-332c0 -68 11 -76 94 -76c81 0 119 34 119 110v332h76c23 0 34 -11 34 -34v-493h-68c-24 0 -30 10 -34 34l-8 49l-23 -47c-16 -35 -39 -45 -139 -45c-119 0 -162 26 -162 170v366h77c23 0 34 -11 34 -34z" />
    <glyph glyph-name="v" unicode="v" horiz-adv-x="554" 
d="M48 493v34h59c33 0 37 -6 47 -37l121 -413h5l121 413c9 31 14 37 47 37h58v-34c0 -23 -3 -44 -10 -65l-126 -386c-11 -32 -25 -42 -93 -42s-81 10 -92 42l-126 386c-7 23 -11 42 -11 65z" />
    <glyph glyph-name="w" unicode="w" horiz-adv-x="776" 
d="M48 493v34h60c32 0 41 -6 48 -35l77 -415h5l56 281c8 40 18 50 94 50c75 0 85 -10 93 -50l58 -281h5l76 415c7 29 16 35 48 35h60v-34c0 -23 -2 -37 -7 -60l-89 -391c-8 -32 -21 -42 -91 -42c-67 0 -91 10 -99 58l-52 261h-4l-51 -261c-11 -48 -31 -58 -100 -58
c-68 0 -83 10 -91 42l-89 391c-5 23 -7 37 -7 60z" />
    <glyph glyph-name="x" unicode="x" horiz-adv-x="562" 
d="M68 493v34h51c32 0 43 -4 56 -25l103 -171h5l103 171c15 21 24 25 57 25h50v-34c0 -37 -7 -53 -20 -69l-127 -156l136 -165c16 -20 20 -34 20 -61v-42h-42c-35 0 -45 6 -60 29l-117 167h-5l-116 -167c-16 -23 -25 -29 -60 -29h-42v42c0 27 4 41 19 61l137 165l-126 156
c-15 16 -22 32 -22 69z" />
    <glyph glyph-name="y" unicode="y" 
d="M48 493v34h68c33 0 40 -9 47 -36l91 -406h74l73 403c5 28 14 39 47 39h68v-34c0 -23 -4 -54 -8 -77l-113 -496c-19 -88 -59 -124 -160 -124h-145v59c0 23 12 35 35 35h98c57 0 71 4 79 54l10 54c-12 -3 -31 -5 -46 -5c-82 0 -103 50 -124 126l-86 306c-7 21 -8 45 -8 68z
" />
    <glyph glyph-name="z" unicode="z" horiz-adv-x="462" 
d="M414 442l-238 -349h204c23 0 34 -11 34 -34v-59h-332c-23 0 -34 11 -34 34v51l237 349h-203c-23 0 -34 11 -34 34v59h332c23 0 34 -11 34 -34v-51z" />
    <glyph glyph-name="braceleft" unicode="{" horiz-adv-x="433" 
d="M274 164v-181c0 -71 33 -85 102 -85c24 0 33 -11 33 -35v-67h-50c-179 0 -196 68 -196 238v113c0 49 -19 77 -68 77h-25c-23 0 -34 11 -34 34v76h59c49 0 68 17 68 68v74c0 170 17 238 196 238h50v-68c0 -23 -9 -34 -33 -34c-69 0 -102 -14 -102 -85v-125
c0 -68 -17 -111 -69 -119c52 -9 69 -51 69 -119z" />
    <glyph glyph-name="bar" unicode="|" horiz-adv-x="182" 
d="M146 714v-918h-75c-23 0 -35 11 -35 34v919h77c24 0 33 -11 33 -35z" />
    <glyph glyph-name="braceright" unicode="}" horiz-adv-x="433" 
d="M159 -17v181c0 68 17 110 69 119c-52 8 -69 51 -69 119v125c0 71 -33 85 -102 85c-24 0 -33 11 -33 34v68h50c179 0 196 -68 196 -238v-74c0 -51 19 -68 68 -68h59v-76c0 -23 -11 -34 -34 -34h-25c-49 0 -68 -28 -68 -77v-113c0 -170 -17 -238 -196 -238h-50v67
c0 24 9 35 33 35c69 0 102 14 102 85z" />
    <glyph glyph-name="asciitilde" unicode="~" horiz-adv-x="506" 
d="M343 238c-84 0 -121 97 -180 97c-21 0 -32 -18 -32 -55c0 -40 -9 -42 -41 -42h-54v51c0 120 34 169 127 169c82 0 124 -97 180 -97c21 0 33 21 33 57c0 39 4 40 42 40h52v-50c0 -120 -32 -170 -127 -170z" />
    <glyph glyph-name="exclamdown" unicode="&#xa1;" horiz-adv-x="250" 
d="M73 85l9 477h51c27 0 34 -10 34 -34l18 -493h-60c-41 0 -52 10 -52 50zM175 639h-75c-23 0 -35 11 -35 33v77h77c24 0 33 -10 33 -34v-76z" />
    <glyph glyph-name="cent" unicode="&#xa2;" horiz-adv-x="478" 
d="M329 127v-93c0 -23 -11 -34 -34 -34h-76v131c-144 13 -179 67 -179 251s35 239 179 252v80c0 23 11 34 34 34h76v-110h119v-60c0 -23 -11 -34 -34 -34h-93c-163 0 -179 -10 -179 -162c0 -153 16 -161 179 -161h93c23 0 34 -11 34 -34v-60h-119z" />
    <glyph glyph-name="sterling" unicode="&#xa3;" horiz-adv-x="606" 
d="M276 314l-7 -93c-5 -69 -14 -103 -25 -119h314v-68c0 -23 -11 -34 -34 -34h-476v68c0 23 11 34 34 34c52 0 68 22 76 119l8 93h-84v60c0 23 11 34 34 34h57l13 181c5 80 48 125 151 125h187v-59c0 -24 -9 -35 -33 -35h-193l-16 -212h174v-59c0 -23 -11 -35 -34 -35h-146z
" />
    <glyph glyph-name="currency" unicode="&#xa4;" horiz-adv-x="606" 
d="M304 443c25 0 46 -3 66 -10l76 111c16 23 26 34 53 34h59v-68c0 -23 -1 -32 -17 -48l-97 -100c8 -20 12 -44 12 -73s-4 -53 -12 -73l97 -100c16 -15 17 -25 17 -48v-68h-59c-27 0 -37 12 -53 35l-76 110c-20 -6 -42 -9 -66 -9c-25 0 -48 3 -68 9l-76 -110
c-16 -23 -27 -35 -52 -35h-60v68c0 23 2 33 18 48l96 100c-7 20 -12 44 -12 73s5 53 12 73l-96 100c-16 16 -18 25 -18 48v68h60c25 0 36 -11 52 -34l76 -111c20 7 41 10 68 10zM304 353c-52 0 -65 -21 -65 -64s13 -65 65 -65c51 0 63 22 63 65s-12 64 -63 64z" />
    <glyph glyph-name="yen" unicode="&#xa5;" horiz-adv-x="650" 
d="M380 170v-136c0 -24 -9 -34 -33 -34h-77v170h-170v59c0 23 11 35 34 35h432v-60c0 -24 -9 -34 -33 -34h-153zM133 400h59l-142 223c-8 12 -14 25 -14 41v50h52c21 0 38 -1 49 -20l173 -294h31l174 294c9 19 26 20 49 20h50v-50c0 -16 -6 -29 -14 -41l-142 -223h108v-60
c0 -23 -9 -34 -33 -34h-433v60c0 24 9 34 33 34z" />
    <glyph glyph-name="brokenbar" unicode="&#xa6;" horiz-adv-x="206" 
d="M158 170v-374h-76c-23 0 -34 11 -34 34v374h76c23 0 34 -11 34 -34zM158 714v-374h-76c-23 0 -34 11 -34 34v375h76c23 0 34 -12 34 -35z" />
    <glyph glyph-name="section" unicode="&#xa7;" horiz-adv-x="574" 
d="M71 94h237c119 0 136 33 136 102c0 35 -18 56 -47 72c-23 -31 -63 -47 -122 -47c-101 0 -144 41 -145 132c-55 31 -94 78 -94 165c0 136 94 196 212 196h248v-59c0 -23 -11 -35 -34 -35h-214c-102 0 -118 -50 -118 -102c0 -27 13 -43 33 -58c23 22 60 33 112 33
c96 0 137 -36 144 -119c68 -32 119 -83 119 -187c0 -119 -42 -187 -230 -187h-272v60c0 23 12 34 35 34zM342 358c0 45 -12 67 -67 67c-56 0 -69 -22 -69 -67c0 -47 14 -69 69 -69s67 22 67 69z" />
    <glyph glyph-name="dieresis" unicode="&#xa8;" horiz-adv-x="361" 
d="M248 722h77v-75c0 -23 -12 -35 -35 -35h-75v77c0 24 9 33 33 33zM36 722h77c23 0 33 -9 33 -33v-77h-76c-23 0 -34 12 -34 35v75z" />
    <glyph glyph-name="copyright" unicode="&#xa9;" horiz-adv-x="984" 
d="M492 -170c-307 0 -442 170 -442 442s135 442 442 442s442 -170 442 -442s-135 -442 -442 -442zM552 0h93v59c0 23 -11 34 -34 34h-59c-163 0 -179 9 -179 170c0 162 16 170 179 170h59c23 0 34 11 34 34v60h-93c-230 0 -281 -43 -281 -264s51 -263 281 -263z" />
    <glyph glyph-name="ordfeminine" unicode="&#xaa;" horiz-adv-x="472" 
d="M232 629c-75 0 -86 -10 -86 -111s11 -110 86 -110c62 0 76 14 76 110s-14 111 -76 111zM325 323v85c-17 -68 -63 -94 -119 -94c-117 0 -170 35 -170 204c0 171 52 204 154 204c76 0 114 -20 135 -84v42c0 23 12 34 35 34h76v-356c0 -23 -11 -35 -34 -35h-77z" />
    <glyph glyph-name="guillemotleft" unicode="&#xab;" horiz-adv-x="625" 
d="M146 334v-4l145 -154c20 -20 26 -33 26 -57v-51h-52c-23 0 -38 8 -54 27l-139 158c-19 23 -36 45 -36 78c0 35 17 57 36 78l139 160c15 17 33 26 54 26h52v-50c0 -24 -6 -37 -26 -58zM419 334v-4l145 -154c19 -20 25 -33 25 -57v-51h-52c-23 0 -38 8 -54 27l-140 158
c-19 23 -35 45 -35 78c0 35 16 57 35 78l140 160c15 17 33 26 54 26h52v-50c0 -24 -6 -37 -25 -58z" />
    <glyph glyph-name="logicalnot" unicode="&#xac;" horiz-adv-x="560" 
d="M48 391h413c41 0 51 -11 51 -51v-272h-73c-24 0 -33 10 -33 34v179h-324c-24 0 -34 9 -34 33v77z" />
    <glyph glyph-name="uni00AD" unicode="&#xad;" horiz-adv-x="370" 
d="M300 264h-264v59c0 23 12 35 35 35h263v-60c0 -23 -11 -34 -34 -34z" />
    <glyph glyph-name="registered" unicode="&#xae;" horiz-adv-x="968" 
d="M485 -136c-307 0 -443 170 -443 442s136 443 443 443c306 0 441 -171 441 -443s-135 -442 -441 -442zM578 408c0 -68 -8 -77 -76 -77h-86v154h86c68 0 76 -9 76 -77zM416 238h59l82 -165c19 -37 30 -39 63 -39h52v43c0 31 -7 41 -20 62l-68 117c72 19 96 64 96 152
c0 136 -51 170 -178 170h-161c-23 0 -35 -11 -35 -33v-511h77c24 0 33 10 33 34v170z" />
    <glyph glyph-name="macron" unicode="&#xaf;" horiz-adv-x="370" 
d="M300 672h-264v59c0 23 12 35 35 35h263v-60c0 -23 -11 -34 -34 -34z" />
    <glyph glyph-name="degree" unicode="&#xb0;" horiz-adv-x="446" 
d="M223 629c-68 0 -77 -10 -77 -111c0 -100 9 -110 77 -110s77 10 77 110c0 101 -9 111 -77 111zM223 314c-152 0 -187 52 -187 204c0 155 35 204 187 204c155 0 187 -49 187 -204c0 -152 -32 -204 -187 -204z" />
    <glyph glyph-name="plusminus" unicode="&#xb1;" horiz-adv-x="444" 
d="M362 0h-314v60c0 23 11 34 34 34h314v-60c0 -23 -11 -34 -34 -34zM354 306h-85v-127h-60c-24 0 -34 9 -34 33v94h-119v60c0 23 11 34 34 34h85v127h59c23 0 35 -11 35 -34v-93h119v-60c0 -23 -11 -34 -34 -34z" />
    <glyph glyph-name="twosuperior" unicode="&#xb2;" horiz-adv-x="484" 
d="M249 673h-145c-23 0 -34 11 -34 34v60h179c127 0 195 -26 195 -153c0 -76 -24 -111 -81 -130l-208 -71v-80h255c23 0 35 -11 35 -34v-59h-366c-23 0 -34 11 -34 34v110c0 57 12 93 89 120l208 71v30c0 60 -18 68 -93 68z" />
    <glyph glyph-name="threesuperior" unicode="&#xb3;" horiz-adv-x="493" 
d="M84 333l170 1c84 0 94 8 94 76v20l-116 52c-23 11 -34 26 -34 45c0 11 5 24 14 37l79 110h-190c-23 0 -34 11 -34 34v59h306c23 0 34 -11 34 -34v-51l-89 -132l53 -23c64 -28 86 -66 87 -125c0 -128 -52 -162 -204 -162h-204v59c0 23 11 34 34 34z" />
    <glyph glyph-name="acute" unicode="&#xb4;" horiz-adv-x="242" 
d="M187 704l-85 -78c-11 -9 -17 -14 -32 -14h-34v35c0 20 2 26 13 41l64 91c17 25 21 29 42 29h51v-51c0 -31 -3 -38 -19 -53z" />
    <glyph glyph-name="mu" unicode="&#xb5;" horiz-adv-x="529" 
d="M158 493v-306c0 -85 39 -102 94 -102c64 0 119 35 119 127v315h77c24 0 33 -10 33 -34v-493h-85c-23 0 -34 11 -34 34v49c-19 -57 -55 -91 -135 -91c-27 0 -50 2 -69 7v-237h-76c-23 0 -34 11 -34 34v731h77c24 0 33 -10 33 -34z" />
    <glyph glyph-name="paragraph" unicode="&#xb6;" horiz-adv-x="806" 
d="M257 714h468c24 0 33 -10 33 -34v-680h-75c-23 0 -35 11 -35 34v578h-179v-578c0 -24 -9 -34 -33 -34h-77v612h-102c-85 0 -119 -16 -119 -144s52 -137 136 -137c24 0 34 -9 34 -33v-60h-51c-168 0 -221 68 -221 238c0 172 53 238 221 238z" />
    <glyph glyph-name="periodcentered" unicode="&#xb7;" horiz-adv-x="238" 
d="M196 204h-102c-43 0 -52 10 -52 50v104h102c41 0 52 -11 52 -52v-102z" />
    <glyph glyph-name="cedilla" unicode="&#xb8;" horiz-adv-x="301" 
d="M129 0v34c112 0 136 -34 136 -111s-35 -119 -136 -119h-93v60c0 23 11 34 33 34h77c29 0 43 13 43 50c0 39 -13 52 -60 52z" />
    <glyph glyph-name="onesuperior" unicode="&#xb9;" horiz-adv-x="276" 
d="M36 767h169c23 0 35 -11 35 -34v-493h-77c-23 0 -35 11 -35 34v399h-58c-23 0 -34 12 -34 35v59z" />
    <glyph glyph-name="ordmasculine" unicode="&#xba;" horiz-adv-x="446" 
d="M223 629c-68 0 -77 -10 -77 -111c0 -100 9 -110 77 -110s77 10 77 110c0 101 -9 111 -77 111zM223 314c-152 0 -187 52 -187 204c0 155 35 204 187 204c155 0 187 -49 187 -204c0 -152 -32 -204 -187 -204z" />
    <glyph glyph-name="guillemotright" unicode="&#xbb;" horiz-adv-x="625" 
d="M479 330v4l-145 153c-20 21 -26 34 -26 58v50h52c21 0 39 -9 54 -26l139 -160c19 -21 36 -43 36 -78c0 -33 -17 -55 -36 -78l-139 -158c-16 -19 -31 -27 -54 -27h-52v51c0 24 6 37 26 57zM206 330v4l-145 153c-19 21 -25 34 -25 58v50h52c21 0 39 -9 54 -26l140 -160
c19 -21 35 -43 35 -78c0 -33 -16 -55 -35 -78l-140 -158c-16 -19 -31 -27 -54 -27h-52v51c0 24 6 37 25 57z" />
    <glyph glyph-name="onequarter" unicode="&#xbc;" horiz-adv-x="1147" 
d="M695 601l-291 -559c-19 -36 -43 -42 -68 -42h-35v50c0 27 4 39 16 64l291 558c19 36 42 42 67 42h35v-49c0 -27 -3 -40 -15 -64zM36 767h169c23 0 35 -11 35 -34v-493h-77c-23 0 -35 11 -35 34v399h-58c-23 0 -34 12 -34 35v59zM1060 527v-306h17c23 0 34 -11 34 -34v-60
h-51v-93c0 -23 -11 -34 -34 -34h-77v127h-229c-23 0 -34 12 -34 35v59l139 269c12 25 28 37 59 37h176zM949 433h-37l-110 -212h147v212z" />
    <glyph glyph-name="onehalf" unicode="&#xbd;" horiz-adv-x="1210" 
d="M707 601l-291 -559c-19 -36 -43 -42 -68 -42h-35v50c0 27 4 39 16 64l291 558c19 36 42 42 67 42h35v-49c0 -27 -3 -40 -15 -64zM48 767h169c23 0 35 -11 35 -34v-493h-77c-23 0 -35 11 -35 34v399h-58c-23 0 -34 12 -34 35v59zM969 433h-145c-23 0 -34 11 -34 34v60h179
c127 0 195 -26 195 -153c0 -76 -24 -111 -81 -130l-208 -71v-80h255c23 0 35 -11 35 -34v-59h-366c-23 0 -34 11 -34 34v110c0 57 12 93 89 120l208 71v30c0 60 -18 68 -93 68z" />
    <glyph glyph-name="threequarters" unicode="&#xbe;" horiz-adv-x="1219" 
d="M797 601l-291 -559c-19 -36 -43 -42 -68 -42h-35v50c0 27 4 39 16 64l291 558c19 36 42 42 67 42h35v-49c0 -27 -3 -40 -15 -64zM90 333l170 1c84 0 94 8 94 76v20l-116 52c-23 11 -34 26 -34 45c0 11 5 24 14 37l79 110h-190c-23 0 -34 11 -34 34v59h306
c23 0 34 -11 34 -34v-51l-89 -132l53 -23c64 -28 86 -66 87 -125c0 -128 -52 -162 -204 -162h-204v59c0 23 11 34 34 34zM1120 527v-306h17c23 0 34 -11 34 -34v-60h-51v-93c0 -23 -11 -34 -34 -34h-77v127h-229c-23 0 -34 12 -34 35v59l139 269c12 25 28 37 59 37h176z
M1009 433h-37l-110 -212h147v212z" />
    <glyph glyph-name="questiondown" unicode="&#xbf;" horiz-adv-x="563" 
d="M371 757v-204c0 -43 -10 -59 -34 -80l-141 -129c-23 -21 -37 -50 -37 -97c0 -93 9 -110 118 -110c127 0 136 17 136 110c0 25 8 34 35 34h67v-68c0 -120 -42 -178 -238 -178c-179 0 -229 58 -229 212c0 86 22 126 67 168l154 139v169c0 23 11 34 34 34h68z" />
    <glyph glyph-name="Agrave" unicode="&#xc0;" horiz-adv-x="683" 
d="M48 0v52c0 21 1 37 8 58l179 554c16 45 24 50 106 50c81 0 91 -5 107 -50l178 -554c8 -21 9 -37 9 -58v-52h-42c-50 0 -58 12 -69 52l-39 127h-287l-40 -127c-13 -40 -17 -52 -68 -52h-42zM227 272h229l-108 348h-13zM341 802l-85 78c-16 15 -19 22 -19 53v51h51
c21 0 25 -4 42 -29l64 -91c11 -15 13 -21 13 -41v-35h-34c-15 0 -21 5 -32 14z" />
    <glyph glyph-name="Aacute" unicode="&#xc1;" horiz-adv-x="683" 
d="M48 0v52c0 21 1 37 8 58l179 554c16 45 24 50 106 50c81 0 91 -5 107 -50l178 -554c8 -21 9 -37 9 -58v-52h-42c-50 0 -58 12 -69 52l-39 127h-287l-40 -127c-13 -40 -17 -52 -68 -52h-42zM227 272h229l-108 348h-13zM425 880l-85 -78c-11 -9 -17 -14 -32 -14h-34v35
c0 20 2 26 13 41l64 91c17 25 21 29 42 29h51v-51c0 -31 -3 -38 -19 -53z" />
    <glyph glyph-name="Acircumflex" unicode="&#xc2;" horiz-adv-x="683" 
d="M48 0v52c0 21 1 37 8 58l179 554c16 45 24 50 106 50c81 0 91 -5 107 -50l178 -554c8 -21 9 -37 9 -58v-52h-42c-50 0 -58 12 -69 52l-39 127h-287l-40 -127c-13 -40 -17 -52 -68 -52h-42zM227 272h229l-108 348h-13zM400 968l85 -86c15 -15 19 -23 19 -52v-43h-52
c-20 0 -23 5 -42 29l-68 93l-68 -93c-19 -24 -22 -29 -42 -29h-52v43c0 29 4 37 19 52l85 86c11 11 17 15 50 15h16c33 0 39 -4 50 -15z" />
    <glyph glyph-name="Atilde" unicode="&#xc3;" horiz-adv-x="683" 
d="M48 0v52c0 21 1 37 8 58l179 554c16 45 24 50 106 50c81 0 91 -5 107 -50l178 -554c8 -21 9 -37 9 -58v-52h-42c-50 0 -58 12 -69 52l-39 127h-287l-40 -127c-13 -40 -17 -52 -68 -52h-42zM227 272h229l-108 348h-13zM378 786h-179v52c0 24 10 33 34 33h145
c29 0 33 5 33 34c0 23 11 35 34 35h52v-35c0 -84 -34 -119 -119 -119z" />
    <glyph glyph-name="Adieresis" unicode="&#xc4;" horiz-adv-x="683" 
d="M48 0v52c0 21 1 37 8 58l179 554c16 45 24 50 106 50c81 0 91 -5 107 -50l178 -554c8 -21 9 -37 9 -58v-52h-42c-50 0 -58 12 -69 52l-39 127h-287l-40 -127c-13 -40 -17 -52 -68 -52h-42zM227 272h229l-108 348h-13zM410 896h77v-75c0 -23 -12 -35 -35 -35h-75v77
c0 24 9 33 33 33zM198 896h77c23 0 33 -9 33 -33v-77h-76c-23 0 -34 12 -34 35v75z" />
    <glyph glyph-name="Aring" unicode="&#xc5;" horiz-adv-x="683" 
d="M48 0v52c0 21 1 37 8 58l179 554c16 45 24 50 106 50c81 0 91 -5 107 -50l178 -554c8 -21 9 -37 9 -58v-52h-42c-50 0 -58 12 -69 52l-39 127h-287l-40 -127c-13 -40 -17 -52 -68 -52h-42zM227 272h229l-108 348h-13zM343 792c-87 0 -128 25 -128 110s41 110 128 110
s128 -25 128 -110s-41 -110 -128 -110zM394 902c0 29 -6 43 -51 43c-46 0 -51 -14 -51 -43s5 -42 51 -42c45 0 51 13 51 42z" />
    <glyph glyph-name="AE" unicode="&#xc6;" horiz-adv-x="932" 
d="M48 0v52c0 21 1 37 8 58l179 554c16 45 33 50 106 50h531v-67c0 -24 -9 -35 -33 -35h-273v-187h290v-67c0 -23 -11 -35 -34 -35h-256v-221h306v-68c0 -24 -9 -34 -33 -34h-383v179h-258l-40 -127c-13 -40 -17 -52 -68 -52h-42zM456 272v348h-121l-108 -348h229z" />
    <glyph glyph-name="Ccedilla" unicode="&#xc7;" horiz-adv-x="547" 
d="M473 612h-25c-273 0 -290 -8 -290 -246v-17c0 -240 17 -247 290 -247h25c23 0 34 -11 34 -34v-68h-100c21 -18 32 -44 32 -77c0 -76 -35 -119 -136 -119h-94v60c0 23 11 34 34 34h77c29 0 43 14 43 51s-14 51 -26 51h-9c-208 0 -280 45 -280 349v17c0 304 54 348 383 348
h76v-68c0 -23 -11 -34 -34 -34z" />
    <glyph glyph-name="Egrave" unicode="&#xc8;" horiz-adv-x="558" 
d="M99 714h399v-68c0 -23 -9 -34 -33 -34h-290v-187h306v-67c0 -23 -11 -35 -34 -35h-272v-221h323v-68c0 -24 -9 -34 -33 -34h-400v680c0 23 11 34 34 34zM282 802l-85 78c-16 15 -19 22 -19 53v51h51c21 0 25 -4 42 -29l64 -91c11 -15 13 -21 13 -41v-35h-34
c-15 0 -21 5 -32 14z" />
    <glyph glyph-name="Eacute" unicode="&#xc9;" horiz-adv-x="558" 
d="M99 714h399v-68c0 -23 -9 -34 -33 -34h-290v-187h306v-67c0 -23 -11 -35 -34 -35h-272v-221h323v-68c0 -24 -9 -34 -33 -34h-400v680c0 23 11 34 34 34zM372 880l-85 -78c-11 -9 -17 -14 -32 -14h-34v35c0 20 2 26 13 41l64 91c17 25 21 29 42 29h51v-51
c0 -31 -3 -38 -19 -53z" />
    <glyph glyph-name="Ecircumflex" unicode="&#xca;" horiz-adv-x="558" 
d="M99 714h399v-68c0 -23 -9 -34 -33 -34h-290v-187h306v-67c0 -23 -11 -35 -34 -35h-272v-221h323v-68c0 -24 -9 -34 -33 -34h-400v680c0 23 11 34 34 34zM335 968l85 -86c15 -15 19 -23 19 -52v-43h-52c-20 0 -23 5 -42 29l-68 93l-68 -93c-19 -24 -22 -29 -42 -29h-52v43
c0 29 4 37 19 52l85 86c11 11 17 15 50 15h16c33 0 39 -4 50 -15z" />
    <glyph glyph-name="Edieresis" unicode="&#xcb;" horiz-adv-x="558" 
d="M99 714h399v-68c0 -23 -9 -34 -33 -34h-290v-187h306v-67c0 -23 -11 -35 -34 -35h-272v-221h323v-68c0 -24 -9 -34 -33 -34h-400v680c0 23 11 34 34 34zM351 896h77v-75c0 -23 -12 -35 -35 -35h-75v77c0 24 9 33 33 33zM139 896h77c23 0 33 -9 33 -33v-77h-76
c-23 0 -34 12 -34 35v75z" />
    <glyph glyph-name="Igrave" unicode="&#xcc;" horiz-adv-x="240" 
d="M65 0v680c0 23 11 34 34 34h76v-680c0 -23 -11 -34 -34 -34h-76zM106 802l-85 78c-16 15 -19 22 -19 53v51h51c21 0 25 -4 42 -29l64 -91c11 -15 13 -21 13 -41v-35h-34c-15 0 -21 5 -32 14z" />
    <glyph glyph-name="Iacute" unicode="&#xcd;" horiz-adv-x="240" 
d="M65 0v680c0 23 11 34 34 34h76v-680c0 -23 -11 -34 -34 -34h-76zM226 880l-85 -78c-11 -9 -17 -14 -32 -14h-34v35c0 20 2 26 13 41l64 91c17 25 21 29 42 29h51v-51c0 -31 -3 -38 -19 -53z" />
    <glyph glyph-name="Icircumflex" unicode="&#xce;" horiz-adv-x="240" 
d="M65 0v680c0 23 11 34 34 34h76v-680c0 -23 -11 -34 -34 -34h-76zM179 968l85 -86c15 -15 19 -23 19 -52v-43h-52c-20 0 -23 5 -42 29l-68 93l-68 -93c-19 -24 -22 -29 -42 -29h-52v43c0 29 4 37 19 52l85 86c11 11 17 15 50 15h16c33 0 39 -4 50 -15z" />
    <glyph glyph-name="Idieresis" unicode="&#xcf;" horiz-adv-x="240" 
d="M65 0v680c0 23 11 34 34 34h76v-680c0 -23 -11 -34 -34 -34h-76zM188 897h77v-75c0 -23 -12 -35 -35 -35h-75v77c0 24 9 33 33 33zM-24 897h77c23 0 33 -9 33 -33v-77h-76c-23 0 -34 12 -34 35v75z" />
    <glyph glyph-name="Eth" unicode="&#xd0;" horiz-adv-x="624" 
d="M100 714h169c192 0 307 -44 307 -314v-86c0 -268 -115 -314 -307 -314h-204v680c0 23 12 34 35 34zM175 323v-221h94c162 0 196 25 196 212v86c0 187 -34 212 -196 212h-94v-187h162v-67c0 -24 -9 -35 -33 -35h-129z" />
    <glyph glyph-name="Ntilde" unicode="&#xd1;" horiz-adv-x="674" 
d="M498 145v535c0 23 12 34 35 34h76v-714h-119c-35 0 -43 7 -52 26l-263 544v-536c0 -23 -11 -34 -33 -34h-77v714h119c33 0 43 -7 51 -26zM370 776h-179v52c0 24 10 33 34 33h145c29 0 33 5 33 34c0 23 11 35 34 35h52v-35c0 -84 -34 -119 -119 -119z" />
    <glyph glyph-name="Ograve" unicode="&#xd2;" horiz-adv-x="624" 
d="M312 722c193 0 264 -54 264 -322v-86c0 -268 -71 -322 -264 -322s-264 54 -264 322v86c0 268 71 322 264 322zM466 314v86c0 204 -18 220 -154 220c-137 0 -152 -16 -152 -220v-86c0 -204 15 -220 152 -220c136 0 154 16 154 220zM325 802l-85 78c-16 15 -19 22 -19 53
v51h51c21 0 25 -4 42 -29l64 -91c11 -15 13 -21 13 -41v-35h-34c-15 0 -21 5 -32 14z" />
    <glyph glyph-name="Oacute" unicode="&#xd3;" horiz-adv-x="624" 
d="M312 722c193 0 264 -54 264 -322v-86c0 -268 -71 -322 -264 -322s-264 54 -264 322v86c0 268 71 322 264 322zM466 314v86c0 204 -18 220 -154 220c-137 0 -152 -16 -152 -220v-86c0 -204 15 -220 152 -220c136 0 154 16 154 220zM420 880l-85 -78
c-11 -9 -17 -14 -32 -14h-34v35c0 20 2 26 13 41l64 91c17 25 21 29 42 29h51v-51c0 -31 -3 -38 -19 -53z" />
    <glyph glyph-name="Ocircumflex" unicode="&#xd4;" horiz-adv-x="624" 
d="M312 722c193 0 264 -54 264 -322v-86c0 -268 -71 -322 -264 -322s-264 54 -264 322v86c0 268 71 322 264 322zM466 314v86c0 204 -18 220 -154 220c-137 0 -152 -16 -152 -220v-86c0 -204 15 -220 152 -220c136 0 154 16 154 220zM370 969l85 -86c15 -15 19 -23 19 -52
v-43h-52c-20 0 -23 5 -42 29l-68 93l-68 -93c-19 -24 -22 -29 -42 -29h-52v43c0 29 4 37 19 52l85 86c11 11 17 15 50 15h16c33 0 39 -4 50 -15z" />
    <glyph glyph-name="Otilde" unicode="&#xd5;" horiz-adv-x="624" 
d="M312 722c193 0 264 -54 264 -322v-86c0 -268 -71 -322 -264 -322s-264 54 -264 322v86c0 268 71 322 264 322zM466 314v86c0 204 -18 220 -154 220c-137 0 -152 -16 -152 -220v-86c0 -204 15 -220 152 -220c136 0 154 16 154 220zM352 788h-179v52c0 24 10 33 34 33h145
c29 0 33 5 33 34c0 23 11 35 34 35h52v-35c0 -84 -34 -119 -119 -119z" />
    <glyph glyph-name="Odieresis" unicode="&#xd6;" horiz-adv-x="624" 
d="M312 722c193 0 264 -54 264 -322v-86c0 -268 -71 -322 -264 -322s-264 54 -264 322v86c0 268 71 322 264 322zM466 314v86c0 204 -18 220 -154 220c-137 0 -152 -16 -152 -220v-86c0 -204 15 -220 152 -220c136 0 154 16 154 220zM374 898h77v-75c0 -23 -12 -35 -35 -35
h-75v77c0 24 9 33 33 33zM162 898h77c23 0 33 -9 33 -33v-77h-76c-23 0 -34 12 -34 35v75z" />
    <glyph glyph-name="multiply" unicode="&#xd7;" horiz-adv-x="527" 
d="M467 433l-127 -127l127 -127c17 -16 18 -25 18 -60v-51h-60c-24 0 -33 11 -60 42l-100 119h-3l-101 -119c-27 -31 -35 -42 -59 -42h-60v51c0 35 1 44 17 60l128 127l-128 127c-16 17 -17 27 -17 60v52h60c24 0 32 -12 59 -43l101 -119h3l100 119c27 31 36 43 60 43h60
v-52c0 -33 -1 -43 -18 -60z" />
    <glyph glyph-name="Oslash" unicode="&#xd8;" horiz-adv-x="623" 
d="M312 722c192 0 263 -53 263 -322v-86c0 -268 -71 -322 -263 -322c-193 0 -264 54 -264 322v86c0 268 71 322 264 322zM158 314v-10l302 222c-13 86 -47 94 -148 94c-136 0 -154 -16 -154 -220v-86zM464 400v10l-300 -222c11 -86 46 -94 148 -94c136 0 152 16 152 220v86z
" />
    <glyph glyph-name="Ugrave" unicode="&#xd9;" horiz-adv-x="613" 
d="M306 -8c-192 0 -246 62 -246 246v476h77c24 0 33 -10 33 -34v-442c0 -136 9 -144 136 -144c128 0 137 8 137 144v442c0 24 9 34 33 34h77v-476c0 -184 -54 -246 -247 -246zM298 802l-85 78c-16 15 -19 22 -19 53v51h51c21 0 25 -4 42 -29l64 -91c11 -15 13 -21 13 -41
v-35h-34c-15 0 -21 5 -32 14z" />
    <glyph glyph-name="Uacute" unicode="&#xda;" horiz-adv-x="613" 
d="M306 -8c-192 0 -246 62 -246 246v476h77c24 0 33 -10 33 -34v-442c0 -136 9 -144 136 -144c128 0 137 8 137 144v442c0 24 9 34 33 34h77v-476c0 -184 -54 -246 -247 -246zM396 880l-85 -78c-11 -9 -17 -14 -32 -14h-34v35c0 20 2 26 13 41l64 91c17 25 21 29 42 29h51
v-51c0 -31 -3 -38 -19 -53z" />
    <glyph glyph-name="Ucircumflex" unicode="&#xdb;" horiz-adv-x="613" 
d="M306 -8c-192 0 -246 62 -246 246v476h77c24 0 33 -10 33 -34v-442c0 -136 9 -144 136 -144c128 0 137 8 137 144v442c0 24 9 34 33 34h77v-476c0 -184 -54 -246 -247 -246zM364 969l85 -86c15 -15 19 -23 19 -52v-43h-52c-20 0 -23 5 -42 29l-68 93l-68 -93
c-19 -24 -22 -29 -42 -29h-52v43c0 29 4 37 19 52l85 86c11 11 17 15 50 15h16c33 0 39 -4 50 -15z" />
    <glyph glyph-name="Udieresis" unicode="&#xdc;" horiz-adv-x="613" 
d="M306 -8c-192 0 -246 62 -246 246v476h77c24 0 33 -10 33 -34v-442c0 -136 9 -144 136 -144c128 0 137 8 137 144v442c0 24 9 34 33 34h77v-476c0 -184 -54 -246 -247 -246zM380 898h77v-75c0 -23 -12 -35 -35 -35h-75v77c0 24 9 33 33 33zM168 898h77c23 0 33 -9 33 -33
v-77h-76c-23 0 -34 12 -34 35v75z" />
    <glyph glyph-name="Yacute" unicode="&#xdd;" horiz-adv-x="642" 
d="M376 277v-243c0 -23 -11 -34 -34 -34h-76v277l-212 346c-7 12 -14 25 -14 41v50h52c21 0 38 -1 49 -20l180 -321l181 321c11 19 25 20 48 20h52v-50c0 -16 -6 -29 -15 -41zM398 880l-85 -78c-11 -9 -17 -14 -32 -14h-34v35c0 20 2 26 13 41l64 91c17 25 21 29 42 29h51
v-51c0 -31 -3 -38 -19 -53z" />
    <glyph glyph-name="Thorn" unicode="&#xde;" 
d="M65 0v680c0 23 12 34 35 34h75v-119h111c188 0 230 -71 230 -237c0 -168 -42 -239 -230 -239h-111v-85c0 -24 -9 -34 -33 -34h-77zM286 493h-111v-272h111c112 0 120 17 120 137c0 117 -8 135 -120 135z" />
    <glyph glyph-name="germandbls" unicode="&#xdf;" horiz-adv-x="601" 
d="M170 527v-493c0 -24 -9 -34 -33 -34h-77v527c0 152 34 204 196 204c178 0 204 -104 177 -221l-41 -186l44 -10c67 -16 117 -44 117 -135c0 -129 -59 -179 -162 -179h-152v59c0 20 13 35 33 35h119c55 0 69 14 69 67v53l-131 30c-48 11 -53 40 -45 76l48 207
c16 69 9 110 -76 110c-77 0 -86 -14 -86 -110z" />
    <glyph glyph-name="agrave" unicode="&#xe0;" horiz-adv-x="534" 
d="M144 161c0 -68 11 -85 94 -85c105 0 136 34 136 102v60h-153c-60 0 -77 -9 -77 -77zM476 297v-297h-60c-24 0 -29 10 -34 34l-8 40l-20 -40c-16 -35 -48 -43 -133 -43c-120 0 -171 34 -171 170v26c0 101 42 136 137 136c51 0 129 -4 181 -9c0 108 -25 119 -122 119h-128
c-23 0 -34 11 -34 34v60h162c179 0 230 -42 230 -230zM251 626l-85 78c-16 15 -19 22 -19 53v51h51c21 0 25 -4 42 -29l64 -91c11 -15 13 -21 13 -41v-35h-34c-15 0 -21 5 -32 14z" />
    <glyph glyph-name="aacute" unicode="&#xe1;" horiz-adv-x="534" 
d="M144 161c0 -68 11 -85 94 -85c105 0 136 34 136 102v60h-153c-60 0 -77 -9 -77 -77zM476 297v-297h-60c-24 0 -29 10 -34 34l-8 40l-20 -40c-16 -35 -48 -43 -133 -43c-120 0 -171 34 -171 170v26c0 101 42 136 137 136c51 0 129 -4 181 -9c0 108 -25 119 -122 119h-128
c-23 0 -34 11 -34 34v60h162c179 0 230 -42 230 -230zM333 704l-85 -78c-11 -9 -17 -14 -32 -14h-34v35c0 20 2 26 13 41l64 91c17 25 21 29 42 29h51v-51c0 -31 -3 -38 -19 -53z" />
    <glyph glyph-name="acircumflex" unicode="&#xe2;" horiz-adv-x="534" 
d="M144 161c0 -68 11 -85 94 -85c105 0 136 34 136 102v60h-153c-60 0 -77 -9 -77 -77zM476 297v-297h-60c-24 0 -29 10 -34 34l-8 40l-20 -40c-16 -35 -48 -43 -133 -43c-120 0 -171 34 -171 170v26c0 101 42 136 137 136c51 0 129 -4 181 -9c0 108 -25 119 -122 119h-128
c-23 0 -34 11 -34 34v60h162c179 0 230 -42 230 -230zM329 793l85 -86c15 -15 19 -23 19 -52v-43h-52c-20 0 -23 5 -42 29l-68 93l-68 -93c-19 -24 -22 -29 -42 -29h-52v43c0 29 4 37 19 52l85 86c11 11 17 15 50 15h16c33 0 39 -4 50 -15z" />
    <glyph glyph-name="atilde" unicode="&#xe3;" horiz-adv-x="534" 
d="M144 161c0 -68 11 -85 94 -85c105 0 136 34 136 102v60h-153c-60 0 -77 -9 -77 -77zM476 297v-297h-60c-24 0 -29 10 -34 34l-8 40l-20 -40c-16 -35 -48 -43 -133 -43c-120 0 -171 34 -171 170v26c0 101 42 136 137 136c51 0 129 -4 181 -9c0 108 -25 119 -122 119h-128
c-23 0 -34 11 -34 34v60h162c179 0 230 -42 230 -230zM276 612h-179v52c0 24 10 33 34 33h145c29 0 33 5 33 34c0 23 11 35 34 35h52v-35c0 -84 -34 -119 -119 -119z" />
    <glyph glyph-name="adieresis" unicode="&#xe4;" horiz-adv-x="534" 
d="M144 161c0 -68 11 -85 94 -85c105 0 136 34 136 102v60h-153c-60 0 -77 -9 -77 -77zM476 297v-297h-60c-24 0 -29 10 -34 34l-8 40l-20 -40c-16 -35 -48 -43 -133 -43c-120 0 -171 34 -171 170v26c0 101 42 136 137 136c51 0 129 -4 181 -9c0 108 -25 119 -122 119h-128
c-23 0 -34 11 -34 34v60h162c179 0 230 -42 230 -230zM342 722h77v-75c0 -23 -12 -35 -35 -35h-75v77c0 24 9 33 33 33zM130 722h77c23 0 33 -9 33 -33v-77h-76c-23 0 -34 12 -34 35v75z" />
    <glyph glyph-name="aring" unicode="&#xe5;" horiz-adv-x="534" 
d="M144 161c0 -68 11 -85 94 -85c105 0 136 34 136 102v60h-153c-60 0 -77 -9 -77 -77zM476 297v-297h-60c-24 0 -29 10 -34 34l-8 40l-20 -40c-16 -35 -48 -43 -133 -43c-120 0 -171 34 -171 170v26c0 101 42 136 137 136c51 0 129 -4 181 -9c0 108 -25 119 -122 119h-128
c-23 0 -34 11 -34 34v60h162c179 0 230 -42 230 -230zM277 604c-87 0 -128 25 -128 110s41 110 128 110s128 -25 128 -110s-41 -110 -128 -110zM328 714c0 29 -6 43 -51 43c-46 0 -51 -14 -51 -43s5 -42 51 -42c45 0 51 13 51 42z" />
    <glyph glyph-name="ae" unicode="&#xe6;" horiz-adv-x="828" 
d="M142 161c0 -69 21 -84 93 -84c97 0 127 33 127 102v59h-144c-60 0 -76 -9 -76 -77zM466 314h212v17c0 94 -10 111 -102 111c-90 0 -107 -11 -110 -128zM745 229h-278c0 -128 24 -135 159 -135h102c23 0 34 -12 34 -35v-59h-152c-111 0 -166 24 -197 71
c-38 -70 -100 -79 -195 -79c-119 0 -170 49 -170 169v26c0 101 42 136 137 136c51 0 120 -5 173 -9c-3 107 -26 119 -123 119h-119c-24 0 -33 11 -33 35v59h152c93 0 148 -13 179 -60c31 49 79 68 162 68c135 0 204 -50 204 -221v-51c0 -23 -12 -34 -35 -34z" />
    <glyph glyph-name="ccedilla" unicode="&#xe7;" horiz-adv-x="457" 
d="M277 0c-187 0 -229 76 -229 263c0 221 51 264 280 264h94v-60c0 -23 -11 -34 -34 -34h-60c-161 0 -178 -8 -178 -170c0 -161 17 -170 178 -170h60c23 0 34 -11 34 -34v-59h-75c21 -18 32 -44 32 -77c0 -76 -33 -119 -136 -119h-93v60c0 23 11 34 34 34h76
c29 0 43 12 43 51c0 45 -5 51 -26 51z" />
    <glyph glyph-name="egrave" unicode="&#xe8;" horiz-adv-x="512" 
d="M151 314h211v17c0 94 -10 111 -102 111c-89 0 -106 -11 -109 -128zM431 229h-280c3 -128 25 -135 161 -135h102c23 0 34 -12 34 -35v-59h-153c-213 0 -247 95 -247 263c0 205 59 272 212 272c137 0 204 -50 204 -221v-51c0 -24 -9 -34 -33 -34zM268 626l-85 78
c-16 15 -19 22 -19 53v51h51c21 0 25 -4 42 -29l64 -91c11 -15 13 -21 13 -41v-35h-34c-15 0 -21 5 -32 14z" />
    <glyph glyph-name="eacute" unicode="&#xe9;" horiz-adv-x="512" 
d="M151 314h211v17c0 94 -10 111 -102 111c-89 0 -106 -11 -109 -128zM431 229h-280c3 -128 25 -135 161 -135h102c23 0 34 -12 34 -35v-59h-153c-213 0 -247 95 -247 263c0 205 59 272 212 272c137 0 204 -50 204 -221v-51c0 -24 -9 -34 -33 -34zM318 704l-85 -78
c-11 -9 -17 -14 -32 -14h-34v35c0 20 2 26 13 41l64 91c17 25 21 29 42 29h51v-51c0 -31 -3 -38 -19 -53z" />
    <glyph glyph-name="ecircumflex" unicode="&#xea;" horiz-adv-x="512" 
d="M151 314h211v17c0 94 -10 111 -102 111c-89 0 -106 -11 -109 -128zM431 229h-280c3 -128 25 -135 161 -135h102c23 0 34 -12 34 -35v-59h-153c-213 0 -247 95 -247 263c0 205 59 272 212 272c137 0 204 -50 204 -221v-51c0 -24 -9 -34 -33 -34zM293 793l85 -86
c15 -15 19 -23 19 -52v-43h-52c-20 0 -23 5 -42 29l-68 93l-68 -93c-19 -24 -22 -29 -42 -29h-52v43c0 29 4 37 19 52l85 86c11 11 17 15 50 15h16c33 0 39 -4 50 -15z" />
    <glyph glyph-name="edieresis" unicode="&#xeb;" horiz-adv-x="512" 
d="M151 314h211v17c0 94 -10 111 -102 111c-89 0 -106 -11 -109 -128zM431 229h-280c3 -128 25 -135 161 -135h102c23 0 34 -12 34 -35v-59h-153c-213 0 -247 95 -247 263c0 205 59 272 212 272c137 0 204 -50 204 -221v-51c0 -24 -9 -34 -33 -34zM320 722h77v-75
c0 -23 -12 -35 -35 -35h-75v77c0 24 9 33 33 33zM108 722h77c23 0 33 -9 33 -33v-77h-76c-23 0 -34 12 -34 35v75z" />
    <glyph glyph-name="igrave" unicode="&#xec;" horiz-adv-x="230" 
d="M170 493v-493h-76c-23 0 -34 11 -34 34v493h76c23 0 34 -11 34 -34zM122 626l-85 78c-16 15 -19 22 -19 53v51h51c21 0 25 -4 42 -29l64 -91c11 -15 13 -21 13 -41v-35h-34c-15 0 -21 5 -32 14z" />
    <glyph glyph-name="iacute" unicode="&#xed;" horiz-adv-x="230" 
d="M170 493v-493h-76c-23 0 -34 11 -34 34v493h76c23 0 34 -11 34 -34zM199 704l-85 -78c-11 -9 -17 -14 -32 -14h-34v35c0 20 2 26 13 41l64 91c17 25 21 29 42 29h51v-51c0 -31 -3 -38 -19 -53z" />
    <glyph glyph-name="icircumflex" unicode="&#xee;" horiz-adv-x="230" 
d="M173 793l85 -86c15 -15 19 -23 19 -52v-43h-52c-20 0 -23 5 -42 29l-68 93l-68 -93c-19 -24 -22 -29 -42 -29h-52v43c0 29 4 37 19 52l85 86c11 11 17 15 50 15h16c33 0 39 -4 50 -15zM170 493v-493h-76c-23 0 -34 11 -34 34v493h76c23 0 34 -11 34 -34z" />
    <glyph glyph-name="idieresis" unicode="&#xef;" horiz-adv-x="230" 
d="M182 722h77v-75c0 -23 -12 -35 -35 -35h-75v77c0 24 9 33 33 33zM-30 722h77c23 0 33 -9 33 -33v-77h-76c-23 0 -34 12 -34 35v75zM170 493v-493h-76c-23 0 -34 11 -34 34v493h76c23 0 34 -11 34 -34z" />
    <glyph glyph-name="eth" unicode="&#xf0;" horiz-adv-x="555" 
d="M159 219l227 174c-13 35 -40 49 -100 49c-107 0 -128 -8 -128 -179c0 -16 0 -29 1 -44zM396 291l-221 -170c17 -35 50 -36 111 -36c89 0 110 34 110 170v17v19zM396 461v15c0 148 -18 162 -136 162h-119c-23 0 -34 11 -34 34v59h153c213 0 247 -68 247 -323v-153
c0 -221 -77 -264 -221 -264c-187 0 -238 51 -238 272s52 272 204 272c87 0 108 -3 130 -44z" />
    <glyph glyph-name="ntilde" unicode="&#xf1;" horiz-adv-x="571" 
d="M400 34v323c0 68 -13 85 -102 85c-107 0 -128 -35 -128 -128v-314h-76c-23 0 -34 11 -34 34v493h59c24 0 30 -10 34 -34l9 -49l23 47c13 27 37 44 138 44c144 0 187 -34 187 -178v-357h-76c-23 0 -34 11 -34 34zM321 612h-179v52c0 24 10 33 34 33h145c29 0 33 5 33 34
c0 23 11 35 34 35h52v-35c0 -84 -34 -119 -119 -119z" />
    <glyph glyph-name="ograve" unicode="&#xf2;" horiz-adv-x="538" 
d="M269 442c-111 0 -119 -16 -119 -179c0 -161 8 -178 119 -178c110 0 119 17 119 178c0 163 -9 179 -119 179zM269 -8c-179 0 -221 51 -221 271c0 221 42 272 221 272s221 -51 221 -272c0 -220 -42 -271 -221 -271zM277 626l-85 78c-16 15 -19 22 -19 53v51h51
c21 0 25 -4 42 -29l64 -91c11 -15 13 -21 13 -41v-35h-34c-15 0 -21 5 -32 14z" />
    <glyph glyph-name="oacute" unicode="&#xf3;" horiz-adv-x="538" 
d="M269 442c-111 0 -119 -16 -119 -179c0 -161 8 -178 119 -178c110 0 119 17 119 178c0 163 -9 179 -119 179zM269 -8c-179 0 -221 51 -221 271c0 221 42 272 221 272s221 -51 221 -272c0 -220 -42 -271 -221 -271zM337 704l-85 -78c-11 -9 -17 -14 -32 -14h-34v35
c0 20 2 26 13 41l64 91c17 25 21 29 42 29h51v-51c0 -31 -3 -38 -19 -53z" />
    <glyph glyph-name="ocircumflex" unicode="&#xf4;" horiz-adv-x="538" 
d="M269 442c-111 0 -119 -16 -119 -179c0 -161 8 -178 119 -178c110 0 119 17 119 178c0 163 -9 179 -119 179zM269 -8c-179 0 -221 51 -221 271c0 221 42 272 221 272s221 -51 221 -272c0 -220 -42 -271 -221 -271zM328 793l85 -86c15 -15 19 -23 19 -52v-43h-52
c-20 0 -23 5 -42 29l-68 93l-68 -93c-19 -24 -22 -29 -42 -29h-52v43c0 29 4 37 19 52l85 86c11 11 17 15 50 15h16c33 0 39 -4 50 -15z" />
    <glyph glyph-name="otilde" unicode="&#xf5;" horiz-adv-x="538" 
d="M269 442c-111 0 -119 -16 -119 -179c0 -161 8 -178 119 -178c110 0 119 17 119 178c0 163 -9 179 -119 179zM269 -8c-179 0 -221 51 -221 271c0 221 42 272 221 272s221 -51 221 -272c0 -220 -42 -271 -221 -271zM305 612h-179v52c0 24 10 33 34 33h145c29 0 33 5 33 34
c0 23 11 35 34 35h52v-35c0 -84 -34 -119 -119 -119z" />
    <glyph glyph-name="odieresis" unicode="&#xf6;" horiz-adv-x="538" 
d="M269 442c-111 0 -119 -16 -119 -179c0 -161 8 -178 119 -178c110 0 119 17 119 178c0 163 -9 179 -119 179zM269 -8c-179 0 -221 51 -221 271c0 221 42 272 221 272s221 -51 221 -272c0 -220 -42 -271 -221 -271zM337 722h77v-75c0 -23 -12 -35 -35 -35h-75v77
c0 24 9 33 33 33zM125 722h77c23 0 33 -9 33 -33v-77h-76c-23 0 -34 12 -34 35v75z" />
    <glyph glyph-name="divide" unicode="&#xf7;" horiz-adv-x="444" 
d="M362 264h-314v59c0 23 11 35 34 35h314v-60c0 -23 -11 -34 -34 -34zM200 179h77v-77c0 -24 -9 -34 -33 -34h-77v76c0 24 9 35 33 35zM200 553h77v-77c0 -24 -9 -33 -33 -33h-77v75c0 24 9 35 33 35z" />
    <glyph glyph-name="oslash" unicode="&#xf8;" horiz-adv-x="539" 
d="M269 442c-111 0 -119 -16 -119 -179v-35l227 173c-15 36 -45 41 -108 41zM388 299l-226 -173c15 -36 43 -41 107 -41c112 0 120 17 120 178c0 13 0 25 -1 36zM269 -8c-179 0 -221 51 -221 271c0 221 42 272 221 272s222 -51 222 -272c0 -220 -43 -271 -222 -271z" />
    <glyph glyph-name="ugrave" unicode="&#xf9;" horiz-adv-x="554" 
d="M171 493v-332c0 -68 11 -76 94 -76c81 0 119 34 119 110v332h76c23 0 34 -11 34 -34v-493h-68c-24 0 -30 10 -34 34l-8 49l-23 -47c-16 -35 -39 -45 -139 -45c-119 0 -162 26 -162 170v366h77c23 0 34 -11 34 -34zM281 626l-85 78c-16 15 -19 22 -19 53v51h51
c21 0 25 -4 42 -29l64 -91c11 -15 13 -21 13 -41v-35h-34c-15 0 -21 5 -32 14z" />
    <glyph glyph-name="uacute" unicode="&#xfa;" horiz-adv-x="554" 
d="M171 493v-332c0 -68 11 -76 94 -76c81 0 119 34 119 110v332h76c23 0 34 -11 34 -34v-493h-68c-24 0 -30 10 -34 34l-8 49l-23 -47c-16 -35 -39 -45 -139 -45c-119 0 -162 26 -162 170v366h77c23 0 34 -11 34 -34zM342 704l-85 -78c-11 -9 -17 -14 -32 -14h-34v35
c0 20 2 26 13 41l64 91c17 25 21 29 42 29h51v-51c0 -31 -3 -38 -19 -53z" />
    <glyph glyph-name="ucircumflex" unicode="&#xfb;" horiz-adv-x="554" 
d="M171 493v-332c0 -68 11 -76 94 -76c81 0 119 34 119 110v332h76c23 0 34 -11 34 -34v-493h-68c-24 0 -30 10 -34 34l-8 49l-23 -47c-16 -35 -39 -45 -139 -45c-119 0 -162 26 -162 170v366h77c23 0 34 -11 34 -34zM330 793l85 -86c15 -15 19 -23 19 -52v-43h-52
c-20 0 -23 5 -42 29l-68 93l-68 -93c-19 -24 -22 -29 -42 -29h-52v43c0 29 4 37 19 52l85 86c11 11 17 15 50 15h16c33 0 39 -4 50 -15z" />
    <glyph glyph-name="udieresis" unicode="&#xfc;" horiz-adv-x="554" 
d="M171 493v-332c0 -68 11 -76 94 -76c81 0 119 34 119 110v332h76c23 0 34 -11 34 -34v-493h-68c-24 0 -30 10 -34 34l-8 49l-23 -47c-16 -35 -39 -45 -139 -45c-119 0 -162 26 -162 170v366h77c23 0 34 -11 34 -34zM336 722h77v-75c0 -23 -12 -35 -35 -35h-75v77
c0 24 9 33 33 33zM124 722h77c23 0 33 -9 33 -33v-77h-76c-23 0 -34 12 -34 35v75z" />
    <glyph glyph-name="yacute" unicode="&#xfd;" 
d="M48 493v34h68c33 0 40 -9 47 -36l91 -406h74l73 403c5 28 14 39 47 39h68v-34c0 -23 -4 -54 -8 -77l-113 -496c-19 -88 -59 -124 -160 -124h-145v59c0 23 12 35 35 35h98c57 0 71 4 79 54l10 54c-12 -3 -31 -5 -46 -5c-82 0 -103 50 -124 126l-86 306c-7 21 -8 45 -8 68z
M345 704l-85 -78c-11 -9 -17 -14 -32 -14h-34v35c0 20 2 26 13 41l64 91c17 25 21 29 42 29h51v-51c0 -31 -3 -38 -19 -53z" />
    <glyph glyph-name="thorn" unicode="&#xfe;" horiz-adv-x="567" 
d="M408 263c0 171 -20 179 -127 179c-91 0 -111 -34 -111 -170v-17c0 -128 20 -170 111 -170c107 0 127 8 127 178zM170 452l15 30c18 42 46 53 130 53c152 0 204 -51 204 -272s-52 -272 -204 -272c-93 0 -109 17 -122 45l-23 47v-287h-76c-23 0 -34 11 -34 34v901h76
c23 0 34 -11 34 -34v-245z" />
    <glyph glyph-name="ydieresis" unicode="&#xff;" 
d="M48 493v34h68c33 0 40 -9 47 -36l91 -406h74l73 403c5 28 14 39 47 39h68v-34c0 -23 -4 -54 -8 -77l-113 -496c-19 -88 -59 -124 -160 -124h-145v59c0 23 12 35 35 35h98c57 0 71 4 79 54l10 54c-12 -3 -31 -5 -46 -5c-82 0 -103 50 -124 126l-86 306c-7 21 -8 45 -8 68z
M358 722h77v-75c0 -23 -12 -35 -35 -35h-75v77c0 24 9 33 33 33zM146 722h77c23 0 33 -9 33 -33v-77h-76c-23 0 -34 12 -34 35v75z" />
    <glyph glyph-name="OE" unicode="&#x152;" horiz-adv-x="890" 
d="M312 714h518v-67c0 -24 -9 -35 -33 -35h-273v-187h290v-67c0 -23 -12 -35 -35 -35h-255v-221h306v-68c0 -24 -9 -34 -33 -34h-485c-193 0 -264 46 -264 314v86c0 268 71 314 264 314zM312 102h102v510h-102c-136 0 -154 -8 -154 -212v-86c0 -204 18 -212 154 -212z" />
    <glyph glyph-name="oe" unicode="&#x153;" horiz-adv-x="852" 
d="M491 314h211v17c0 94 -10 111 -102 111c-91 0 -104 -11 -109 -128zM269 442c-111 0 -119 -16 -119 -179c0 -161 8 -178 119 -178c110 0 119 17 119 178c0 163 -9 179 -119 179zM269 -8c-179 0 -221 51 -221 271c0 221 42 272 221 272c96 0 147 -14 175 -62
c29 44 77 62 156 62c137 0 204 -50 204 -221v-51c0 -23 -11 -34 -34 -34h-279c3 -128 24 -135 161 -135h102c24 0 33 -11 33 -35v-59h-152c-100 0 -156 20 -189 59c-27 -52 -77 -67 -177 -67z" />
    <glyph glyph-name="Scaron" unicode="&#x160;" 
d="M82 102h162c152 0 162 17 162 119v67l-232 47c-89 19 -126 37 -126 158c0 185 62 221 254 221h188v-67c0 -23 -11 -35 -34 -35h-154c-135 0 -144 -18 -144 -119v-49l255 -54c76 -16 103 -49 103 -169c0 -184 -80 -221 -272 -221h-196v68c0 23 11 34 34 34zM429 890
l-87 -87c-11 -9 -16 -14 -49 -14h-17c-32 0 -38 5 -49 14l-85 87c-16 15 -18 21 -18 53v42h50c22 0 23 -4 42 -29l69 -94l68 94c17 25 22 29 42 29h52v-42c0 -32 -3 -38 -18 -53z" />
    <glyph glyph-name="scaron" unicode="&#x161;" horiz-adv-x="470" 
d="M48 374c0 101 52 153 187 153h171v-59c0 -23 -11 -35 -34 -35h-137c-71 0 -93 -14 -93 -59v-38l168 -37c103 -24 112 -56 112 -147c0 -93 -50 -152 -187 -152h-187v59c0 23 12 35 35 35h152c72 0 94 14 94 67v38l-167 37c-103 24 -114 53 -114 138zM375 713l-87 -87
c-11 -9 -16 -14 -49 -14h-17c-32 0 -38 5 -49 14l-85 87c-16 15 -18 21 -18 53v42h50c22 0 23 -4 42 -29l69 -94l68 94c17 25 22 29 42 29h52v-42c0 -32 -3 -38 -18 -53z" />
    <glyph glyph-name="Ydieresis" unicode="&#x178;" horiz-adv-x="642" 
d="M376 277v-243c0 -23 -11 -34 -34 -34h-76v277l-212 346c-7 12 -14 25 -14 41v50h52c21 0 38 -1 49 -20l180 -321l181 321c11 19 25 20 48 20h52v-50c0 -16 -6 -29 -15 -41zM398 897h77v-75c0 -23 -12 -35 -35 -35h-75v77c0 24 9 33 33 33zM186 897h77c23 0 33 -9 33 -33
v-77h-76c-23 0 -34 12 -34 35v75z" />
    <glyph glyph-name="Zcaron" unicode="&#x17d;" horiz-adv-x="571" 
d="M524 621l-347 -519h313c23 0 34 -11 34 -34v-68h-442c-23 0 -34 11 -34 34v59l348 519h-297c-23 0 -34 11 -34 34v68h425c23 0 34 -11 34 -34v-59zM438 890l-87 -87c-11 -9 -16 -14 -49 -14h-17c-32 0 -38 5 -49 14l-85 87c-16 15 -18 21 -18 53v42h50c22 0 23 -4 42 -29
l69 -94l68 94c17 25 22 29 42 29h52v-42c0 -32 -3 -38 -18 -53z" />
    <glyph glyph-name="zcaron" unicode="&#x17e;" horiz-adv-x="438" 
d="M404 442l-238 -349h204c23 0 34 -11 34 -34v-59h-332c-23 0 -34 11 -34 34v51l237 349h-203c-23 0 -34 11 -34 34v59h332c23 0 34 -11 34 -34v-51zM363 713l-87 -87c-11 -9 -16 -14 -49 -14h-17c-32 0 -38 5 -49 14l-85 87c-16 15 -18 21 -18 53v42h50c22 0 23 -4 42 -29
l69 -94l68 94c17 25 22 29 42 29h52v-42c0 -32 -3 -38 -18 -53z" />
    <glyph glyph-name="florin" unicode="&#x192;" horiz-adv-x="408" 
d="M253 527h119v-51c0 -24 -10 -33 -34 -33h-85v-443c0 -155 -33 -204 -162 -204h-67v50c0 23 11 35 34 35c84 0 85 15 85 119v443h-69v50c0 23 12 34 35 34h34c0 152 33 204 162 204h67v-51c0 -24 -10 -33 -34 -33c-84 0 -85 -16 -85 -120z" />
    <glyph glyph-name="circumflex" unicode="&#x2c6;" horiz-adv-x="396" 
d="M256 793l85 -86c15 -15 19 -23 19 -52v-43h-52c-20 0 -23 5 -42 29l-68 93l-68 -93c-19 -24 -22 -29 -42 -29h-52v43c0 29 4 37 19 52l85 86c11 11 17 15 50 15h16c33 0 39 -4 50 -15z" />
    <glyph glyph-name="tilde" unicode="&#x2dc;" horiz-adv-x="370" 
d="M215 612h-179v52c0 24 10 33 34 33h145c29 0 33 5 33 34c0 23 11 35 34 35h52v-35c0 -84 -34 -119 -119 -119z" />
    <glyph glyph-name="endash" unicode="&#x2013;" horiz-adv-x="394" 
d="M312 264h-264v59c0 23 12 35 35 35h263v-60c0 -23 -11 -34 -34 -34z" />
    <glyph glyph-name="emdash" unicode="&#x2014;" horiz-adv-x="632" 
d="M551 264h-503v59c0 23 12 35 35 35h501v-60c0 -24 -9 -34 -33 -34z" />
    <glyph glyph-name="quoteleft" unicode="&#x2018;" horiz-adv-x="182" 
d="M113 502h-77v93c0 23 7 40 14 52l29 50c7 13 17 17 34 17h33v-179c0 -23 -9 -33 -33 -33z" />
    <glyph glyph-name="quoteright" unicode="&#x2019;" horiz-adv-x="182" 
d="M69 714h77v-93c0 -23 -7 -40 -14 -52l-29 -50c-7 -13 -17 -17 -34 -17h-33v179c0 23 9 33 33 33z" />
    <glyph glyph-name="quotesinglbase" unicode="&#x201a;" horiz-adv-x="182" 
d="M70 110h76v-93c0 -23 -7 -40 -14 -52l-29 -50c-7 -13 -17 -17 -33 -17h-34v179c0 22 11 33 34 33z" />
    <glyph glyph-name="quotedblleft" unicode="&#x201c;" horiz-adv-x="338" 
d="M269 502h-77v93c0 23 7 40 14 52l29 50c7 13 17 17 34 17h33v-179c0 -23 -9 -33 -33 -33zM113 502h-77v93c0 23 7 40 14 52l29 50c7 13 17 17 34 17h33v-179c0 -23 -9 -33 -33 -33z" />
    <glyph glyph-name="quotedblright" unicode="&#x201d;" horiz-adv-x="338" 
d="M69 714h77v-93c0 -23 -7 -40 -14 -52l-29 -50c-7 -13 -17 -17 -34 -17h-33v179c0 23 9 33 33 33zM225 714h77v-93c0 -23 -7 -40 -14 -52l-29 -50c-7 -13 -17 -17 -34 -17h-33v179c0 23 9 33 33 33z" />
    <glyph glyph-name="quotedblbase" unicode="&#x201e;" horiz-adv-x="338" 
d="M70 110h76v-93c0 -23 -7 -40 -14 -52l-29 -50c-7 -13 -17 -17 -33 -17h-34v179c0 22 11 33 34 33zM226 110h76v-93c0 -23 -7 -40 -14 -52l-29 -50c-7 -13 -17 -17 -33 -17h-34v179c0 22 11 33 34 33z" />
    <glyph glyph-name="dagger" unicode="&#x2020;" horiz-adv-x="539" 
d="M320 485v-485h-76c-23 0 -34 11 -34 34v451h-127c-24 0 -35 9 -35 33v69h162v162h77c24 0 33 -11 33 -35v-127h136c23 0 35 -11 35 -34v-68h-171z" />
    <glyph glyph-name="daggerdbl" unicode="&#x2021;" horiz-adv-x="538" 
d="M319 179v-179h-75c-23 0 -35 11 -35 34v145h-127c-24 0 -34 9 -34 33v69h161v204h-127c-24 0 -34 9 -34 33v69h161v162h77c24 0 33 -11 33 -35v-127h137c23 0 34 -11 34 -34v-68h-171v-204h137c23 0 34 -11 34 -34v-68h-171z" />
    <glyph glyph-name="bullet" unicode="&#x2022;" horiz-adv-x="457" 
d="M228 85c-136 0 -186 86 -186 187c0 102 50 188 186 188c137 0 187 -86 187 -188c0 -101 -50 -187 -187 -187z" />
    <glyph glyph-name="ellipsis" unicode="&#x2026;" horiz-adv-x="523" 
d="M206 110h76c23 0 35 -11 35 -33v-77h-77c-23 0 -34 11 -34 34v76zM71 110h75v-76c0 -24 -9 -34 -33 -34h-77v77c0 22 12 33 35 33zM412 110h75v-76c0 -24 -9 -34 -33 -34h-77v77c0 22 12 33 35 33z" />
    <glyph glyph-name="perthousand" unicode="&#x2030;" horiz-adv-x="658" 
d="M442 601l-291 -559c-19 -36 -43 -42 -68 -42h-35v50c0 27 4 39 16 64l291 558c19 36 42 42 67 42h35v-49c0 -27 -3 -40 -15 -64zM329 110h77c24 0 33 -9 33 -33v-77h-75c-23 0 -35 11 -35 34v76zM533 110h77v-76c0 -23 -11 -34 -34 -34h-77v77c0 24 11 33 34 33zM100 714
h76v-77c0 -22 -11 -33 -34 -33h-76v76c0 23 11 34 34 34z" />
    <glyph glyph-name="guilsinglleft" unicode="&#x2039;" horiz-adv-x="377" 
d="M158 334v-4l146 -154c19 -20 25 -33 25 -57v-51h-52c-23 0 -38 8 -54 27l-140 158c-19 23 -35 45 -35 78c0 35 16 57 35 78l140 160c16 19 31 26 54 26h52v-50c0 -24 -6 -37 -25 -58z" />
    <glyph glyph-name="guilsinglright" unicode="&#x203a;" horiz-adv-x="377" 
d="M219 330v4l-146 153c-19 21 -25 34 -25 58v50h52c23 0 38 -7 54 -26l140 -160c19 -21 35 -43 35 -78c0 -33 -16 -55 -35 -78l-140 -158c-16 -19 -31 -27 -54 -27h-52v51c0 24 6 37 25 57z" />
    <glyph glyph-name="Euro" unicode="&#x20ac;" horiz-adv-x="632" 
d="M469 238h-215c5 -88 33 -136 165 -136h144c24 0 33 -10 33 -34v-68h-177c-175 0 -269 70 -274 238h-109v60c0 24 11 33 35 33h432v-59c0 -23 -11 -34 -34 -34zM86 485h53c16 172 123 229 288 229h169v-67c0 -24 -9 -35 -33 -35h-144c-120 0 -164 -40 -167 -127h286v-60
c0 -23 -12 -34 -35 -34h-450v60c0 23 9 34 33 34z" />
    <glyph glyph-name="trademark" unicode="&#x2122;" horiz-adv-x="898" 
d="M71 714h289v-59c0 -23 -12 -35 -35 -35h-77v-280c0 -23 -9 -34 -33 -34h-69v314h-110v60c0 23 12 34 35 34zM760 544l-81 -144c-7 -15 -12 -17 -39 -17s-32 2 -39 17l-80 144v-204c0 -23 -11 -34 -34 -34h-68v374c0 23 11 34 33 34h69l119 -205l120 205h67
c23 0 35 -11 35 -34v-374h-69c-24 0 -33 11 -33 34v204z" />
    <glyph glyph-name="exclam" unicode="!" horiz-adv-x="250" 
d="M82 187l-9 477c0 40 11 50 52 50h60l-18 -493c0 -24 -7 -34 -34 -34h-51zM100 110h75v-76c0 -24 -9 -34 -33 -34h-77v77c0 22 12 33 35 33z" />
    <glyph glyph-name="quotedbl" unicode="&#x22;" horiz-adv-x="395" 
d="M84 731h76l-9 -221c0 -24 -8 -34 -33 -34h-60l-9 221c-1 23 11 34 35 34zM270 731h77l-9 -221c-1 -24 -8 -34 -33 -34h-60l-9 221c-1 23 11 34 34 34z" />
    <glyph glyph-name="uni000D" unicode="&#xd;" horiz-adv-x="0" 
 />
    <glyph glyph-name="nbspace" unicode="&#xa0;" horiz-adv-x="250" 
 />
    <glyph glyph-name="space" unicode=" " horiz-adv-x="250" 
 />
    <glyph glyph-name="numbersign" unicode="#" horiz-adv-x="691" 
d="M388 0v212h-86v-212h-76c-23 0 -34 11 -34 34v178h-144v69c0 24 10 33 34 33h561v-67c0 -23 -12 -35 -35 -35h-110v-178c0 -23 -11 -34 -34 -34h-76zM82 485h110v212h77c24 0 33 -9 33 -33v-179h86v179c0 24 9 33 33 33h77v-212h145v-69c0 -24 -11 -33 -35 -33h-560v68
c0 23 11 34 34 34z" />
    <glyph glyph-name="_220" horiz-adv-x="0" 
 />
    <glyph glyph-name="afii10023" unicode="&#x401;" horiz-adv-x="558" 
d="M99 714h399v-68c0 -23 -9 -34 -33 -34h-290v-187h306v-67c0 -23 -11 -35 -34 -35h-272v-221h323v-68c0 -24 -9 -34 -33 -34h-400v680c0 23 11 34 34 34zM351 896h77v-75c0 -23 -12 -35 -35 -35h-75v77c0 24 9 33 33 33zM139 896h77c23 0 33 -9 33 -33v-77h-76
c-23 0 -34 12 -34 35v75z" />
    <glyph glyph-name="afii10051" unicode="&#x402;" horiz-adv-x="708" 
d="M244 0v612h-196v68c0 23 11 34 34 34h476v-68c0 -23 -11 -34 -34 -34h-170v-202l15 30c14 28 35 45 121 45c119 0 170 -34 170 -179v-85c0 -136 -35 -221 -195 -221h-51v59c0 23 11 34 34 34c92 0 102 7 102 128v85c0 69 -21 85 -85 85c-91 0 -111 -35 -111 -127v-230
c0 -23 -11 -34 -34 -34h-76z" />
    <glyph glyph-name="afii10052" unicode="&#x403;" horiz-adv-x="496" 
d="M100 714h348v-67c0 -23 -11 -35 -34 -35h-237v-578c0 -23 -12 -34 -35 -34h-77v680c0 23 12 34 35 34zM330 880l-85 -78c-11 -9 -17 -14 -32 -14h-34v35c0 20 2 26 13 41l64 91c17 25 21 29 42 29h51v-51c0 -31 -3 -38 -19 -53z" />
    <glyph glyph-name="afii10053" unicode="&#x404;" horiz-adv-x="547" 
d="M463 612h-94c-198 0 -221 -8 -221 -196h247v-68c0 -23 -11 -34 -34 -34h-213c0 -204 17 -212 221 -212h94c23 0 34 -11 34 -34v-68h-128c-260 0 -331 45 -331 314v85c0 269 71 315 331 315h128v-68c0 -23 -11 -34 -34 -34z" />
    <glyph glyph-name="afii10054" unicode="&#x405;" 
d="M82 102h162c152 0 162 17 162 119v67l-232 47c-89 19 -126 37 -126 158c0 185 62 221 254 221h188v-67c0 -23 -11 -35 -34 -35h-154c-135 0 -144 -18 -144 -119v-49l255 -54c76 -16 103 -49 103 -169c0 -184 -80 -221 -272 -221h-196v68c0 23 11 34 34 34z" />
    <glyph glyph-name="afii10055" unicode="&#x406;" horiz-adv-x="240" 
d="M65 0v680c0 23 11 34 34 34h76v-680c0 -23 -11 -34 -34 -34h-76z" />
    <glyph glyph-name="afii10056" unicode="&#x407;" horiz-adv-x="240" 
d="M65 0v680c0 23 11 34 34 34h76v-680c0 -23 -11 -34 -34 -34h-76zM188 897h77v-75c0 -23 -12 -35 -35 -35h-75v77c0 24 9 33 33 33zM-24 897h77c23 0 33 -9 33 -33v-77h-76c-23 0 -34 12 -34 35v75z" />
    <glyph glyph-name="afii10057" unicode="&#x408;" horiz-adv-x="514" 
d="M466 714v-510c0 -168 -54 -212 -214 -212c-158 0 -204 46 -204 195v51h68c23 0 34 -11 34 -34c0 -101 17 -110 102 -110s102 9 102 110v476c0 23 12 34 35 34h77z" />
    <glyph glyph-name="afii10058" unicode="&#x409;" horiz-adv-x="994" 
d="M282 612l-29 -458c-8 -117 -47 -154 -167 -154h-50v68c0 23 11 34 34 34h73l38 578c3 24 10 34 34 34h356c23 0 35 -11 35 -34v-237h110c188 0 230 -46 230 -222c0 -175 -42 -221 -230 -221h-187c-24 0 -33 10 -33 34v578h-214zM606 102h110c111 0 119 8 119 119
s-8 119 -119 119h-110v-238z" />
    <glyph glyph-name="afii10059" unicode="&#x40a;" horiz-adv-x="930" 
d="M652 0h-187c-23 0 -34 11 -34 34v280h-256v-314h-75c-23 0 -35 11 -35 34v680h77c24 0 33 -10 33 -34v-264h256v298h77c22 0 33 -11 33 -34v-237h111c188 0 230 -46 230 -222c0 -175 -42 -221 -230 -221zM541 102h111c111 0 119 0 119 119c0 120 -8 119 -119 119h-111
v-238z" />
    <glyph glyph-name="afii10060" unicode="&#x40b;" horiz-adv-x="708" 
d="M244 0v612h-196v68c0 23 11 34 34 34h476v-68c0 -23 -11 -34 -34 -34h-170v-202l15 30c14 28 35 45 121 45c119 0 170 -34 170 -179v-306h-76c-23 0 -34 11 -34 34v272c0 69 -21 85 -85 85c-91 0 -111 -35 -111 -127v-230c0 -23 -11 -34 -34 -34h-76z" />
    <glyph glyph-name="afii10061" unicode="&#x40c;" horiz-adv-x="571" 
d="M65 0v680c0 23 11 34 34 34h76v-314h6l233 280c24 32 31 34 63 34h50v-50c0 -35 -10 -52 -25 -69l-222 -235l237 -250c15 -15 18 -28 18 -60v-50h-42c-28 0 -42 2 -62 26l-250 288h-6v-280c0 -24 -9 -34 -33 -34h-77zM408 880l-85 -78c-11 -9 -17 -14 -32 -14h-34v35
c0 20 2 26 13 41l64 91c17 25 21 29 42 29h51v-51c0 -31 -3 -38 -19 -53z" />
    <glyph glyph-name="afii10062" unicode="&#x40e;" horiz-adv-x="589" 
d="M48 664v50h60c32 0 42 -11 50 -50l82 -375h100l104 391c7 24 14 34 47 34h50v-50c0 -23 -1 -39 -8 -60l-119 -431c-35 -128 -52 -173 -187 -173h-137v68c0 23 12 34 35 34h102c51 0 65 11 78 55l12 45c-29 -4 -43 -5 -67 -5c-75 0 -97 51 -113 110l-81 305
c-7 23 -8 37 -8 52zM298 776c-103 0 -137 35 -137 119v51h52c24 0 33 -9 33 -33c0 -56 12 -60 52 -60c37 0 50 4 50 60c0 24 11 33 34 33h51v-51c0 -84 -34 -119 -135 -119z" />
    <glyph glyph-name="afii10145" unicode="&#x40f;" horiz-adv-x="615" 
d="M65 34v680h77c24 0 33 -10 33 -34v-578h264v578c0 23 11 34 34 34h77v-680c0 -23 -11 -34 -34 -34h-162v-102h-77c-24 0 -33 10 -33 34v68h-144c-23 0 -35 11 -35 34z" />
    <glyph glyph-name="afii10017" unicode="&#x410;" horiz-adv-x="683" 
d="M48 0v52c0 21 1 37 8 58l179 554c16 45 24 50 106 50c81 0 91 -5 107 -50l178 -554c8 -21 9 -37 9 -58v-52h-42c-50 0 -58 12 -69 52l-39 127h-287l-40 -127c-13 -40 -17 -52 -68 -52h-42zM227 272h229l-108 348h-13z" />
    <glyph glyph-name="afii10018" unicode="&#x411;" horiz-adv-x="573" 
d="M304 0h-239v680c0 23 12 34 35 34h365v-67c0 -23 -11 -35 -34 -35h-256v-152h129c152 0 221 -46 221 -231c0 -183 -69 -229 -221 -229zM175 358v-256h129c93 0 110 8 110 127c0 120 -17 129 -110 129h-129z" />
    <glyph glyph-name="afii10019" unicode="&#x412;" horiz-adv-x="615" 
d="M99 714h220c179 0 231 -46 231 -196c0 -92 -26 -134 -94 -146c69 -19 111 -59 111 -176c0 -154 -77 -196 -230 -196h-272v680c0 23 11 34 34 34zM354 323h-179v-221h162c111 0 119 12 119 107c0 93 -8 114 -102 114zM319 612h-144v-196h162c94 0 102 10 102 102
c0 76 -8 94 -120 94z" />
    <glyph glyph-name="afii10020" unicode="&#x413;" horiz-adv-x="496" 
d="M100 714h348v-67c0 -23 -11 -35 -34 -35h-237v-578c0 -23 -12 -34 -35 -34h-77v680c0 23 12 34 35 34z" />
    <glyph glyph-name="afii10021" unicode="&#x414;" horiz-adv-x="751" 
d="M283 612l-31 -450c-1 -23 -5 -41 -8 -60h279c-3 19 -4 37 -7 60l-30 450h-203zM681 0h-645v68c0 23 12 34 35 34h72l39 578c3 24 9 34 33 34h339c23 0 31 -10 32 -34l40 -578h89v-68c0 -23 -11 -34 -34 -34z" />
    <glyph glyph-name="afii10022" unicode="&#x415;" horiz-adv-x="558" 
d="M99 714h399v-68c0 -23 -9 -34 -33 -34h-290v-187h306v-67c0 -23 -11 -35 -34 -35h-272v-221h323v-68c0 -24 -9 -34 -33 -34h-400v680c0 23 11 34 34 34z" />
    <glyph glyph-name="afii10024" unicode="&#x416;" horiz-adv-x="928" 
d="M409 0v314h-6l-249 -288c-21 -24 -34 -26 -63 -26h-43v52c0 31 6 43 18 58l239 250l-222 235c-16 17 -27 34 -27 69v50h52c31 0 38 -2 62 -34l233 -280h6v280c0 23 11 34 34 34h77v-314h4l233 280c27 32 31 34 64 34h50v-50c0 -35 -9 -52 -25 -69l-222 -235l238 -250
c13 -15 18 -27 18 -58v-52h-42c-29 0 -42 2 -63 26l-251 288h-4v-280c0 -23 -12 -34 -35 -34h-76z" />
    <glyph glyph-name="afii10025" unicode="&#x417;" horiz-adv-x="572" 
d="M524 625l-190 -268l190 -268v-55c0 -23 -11 -34 -34 -34h-442v68c0 23 11 34 34 34h297l-141 199c-23 32 -23 79 0 112l141 199h-297c-23 0 -34 11 -34 34v68h442c23 0 34 -11 34 -34v-55z" />
    <glyph glyph-name="afii10026" unicode="&#x418;" horiz-adv-x="674" 
d="M175 680v-535l263 543c9 19 17 26 52 26h119v-714h-77c-23 0 -34 11 -34 34v536l-263 -544c-8 -19 -18 -26 -51 -26h-119v714h76c23 0 34 -11 34 -34z" />
    <glyph glyph-name="afii10027" unicode="&#x419;" horiz-adv-x="674" 
d="M175 680v-535l263 543c9 19 17 26 52 26h119v-714h-77c-23 0 -34 11 -34 34v536l-263 -544c-8 -19 -18 -26 -51 -26h-119v714h76c23 0 34 -11 34 -34zM326 786c-103 0 -137 35 -137 119v51h52c24 0 33 -9 33 -33c0 -56 12 -60 52 -60c37 0 50 4 50 60c0 24 11 33 34 33
h51v-51c0 -84 -34 -119 -135 -119z" />
    <glyph glyph-name="afii10028" unicode="&#x41a;" horiz-adv-x="571" 
d="M65 0v680c0 23 11 34 34 34h76v-314h6l233 280c24 32 31 34 63 34h50v-50c0 -35 -10 -52 -25 -69l-222 -235l237 -250c15 -15 18 -28 18 -60v-50h-42c-28 0 -42 2 -62 26l-250 288h-6v-280c0 -24 -9 -34 -33 -34h-77z" />
    <glyph glyph-name="afii10029" unicode="&#x41b;" horiz-adv-x="679" 
d="M282 612l-29 -458c-8 -117 -47 -154 -167 -154h-50v68c0 23 11 34 34 34h73l38 578c3 24 10 34 34 34h365c23 0 34 -11 34 -34v-680h-76c-23 0 -34 11 -34 34v578h-222z" />
    <glyph glyph-name="afii10030" unicode="&#x41c;" horiz-adv-x="793" 
d="M397 211l187 503h110c23 0 34 -11 34 -34v-680h-76c-23 0 -34 11 -34 34v476l-168 -452c-5 -11 -18 -17 -53 -17s-49 6 -53 17l-168 452v-476c0 -23 -12 -34 -35 -34h-76v680c0 23 11 34 34 34h110z" />
    <glyph glyph-name="afii10031" unicode="&#x41d;" horiz-adv-x="615" 
d="M550 680v-680h-77c-23 0 -34 11 -34 34v280h-264v-314h-76c-23 0 -34 11 -34 34v680h77c22 0 33 -11 33 -34v-264h264v298h76c23 0 35 -11 35 -34z" />
    <glyph glyph-name="afii10032" unicode="&#x41e;" horiz-adv-x="624" 
d="M312 722c193 0 264 -54 264 -322v-86c0 -268 -71 -322 -264 -322s-264 54 -264 322v86c0 268 71 322 264 322zM466 314v86c0 204 -18 220 -154 220c-137 0 -152 -16 -152 -220v-86c0 -204 15 -220 152 -220c136 0 154 16 154 220z" />
    <glyph glyph-name="afii10033" unicode="&#x41f;" horiz-adv-x="623" 
d="M65 0v680c0 23 12 34 35 34h425c24 0 33 -10 33 -34v-680h-75c-23 0 -35 11 -35 34v578h-273v-578c0 -24 -9 -34 -33 -34h-77z" />
    <glyph glyph-name="afii10034" unicode="&#x420;" horiz-adv-x="598" 
d="M100 714h221c187 0 229 -62 229 -238s-42 -238 -229 -238h-146v-204c0 -24 -9 -34 -33 -34h-77v680c0 23 12 34 35 34zM321 612h-146v-272h146c109 0 118 16 118 136c0 119 -9 136 -118 136z" />
    <glyph glyph-name="afii10035" unicode="&#x421;" horiz-adv-x="547" 
d="M473 612h-25c-272 0 -289 -8 -289 -246v-17c0 -240 17 -247 289 -247h25c23 0 34 -11 34 -34v-68h-76c-329 0 -383 45 -383 349v17c0 304 54 348 383 348h76v-68c0 -23 -11 -34 -34 -34z" />
    <glyph glyph-name="afii10036" unicode="&#x422;" horiz-adv-x="582" 
d="M232 0v612h-196v68c0 23 11 34 34 34h476v-67c0 -23 -12 -35 -35 -35h-169v-578c0 -23 -12 -34 -35 -34h-75z" />
    <glyph glyph-name="afii10037" unicode="&#x423;" horiz-adv-x="589" 
d="M48 664v50h60c32 0 42 -11 50 -50l82 -375h100l104 391c7 24 14 34 47 34h50v-50c0 -23 -1 -39 -8 -60l-119 -431c-35 -128 -52 -173 -187 -173h-137v68c0 23 12 34 35 34h102c51 0 65 11 78 55l12 45c-29 -4 -43 -5 -67 -5c-75 0 -97 51 -113 110l-81 305
c-7 23 -8 37 -8 52z" />
    <glyph glyph-name="afii10038" unicode="&#x424;" horiz-adv-x="785" 
d="M286 714h212c187 0 239 -71 239 -246c0 -176 -52 -247 -239 -247h-50v-187c0 -23 -11 -34 -34 -34h-77v221h-51c-189 0 -238 71 -238 247c0 175 49 246 238 246zM286 323h51v289h-51c-119 0 -128 -16 -128 -144s9 -145 128 -145zM498 612h-50v-289h50
c120 0 128 17 128 145s-8 144 -128 144z" />
    <glyph glyph-name="afii10039" unicode="&#x425;" horiz-adv-x="641" 
d="M62 92l191 278l-174 253c-8 11 -14 25 -14 41v50h51c23 0 42 -10 53 -25l151 -238l152 238c11 15 31 25 52 25h52v-50c0 -16 -6 -30 -14 -41l-174 -253l190 -278c10 -13 15 -27 15 -40v-52h-52c-21 0 -42 10 -53 26l-168 263l-168 -263c-11 -16 -31 -26 -52 -26h-52v52
c0 15 6 28 14 40z" />
    <glyph glyph-name="afii10040" unicode="&#x426;" horiz-adv-x="690" 
d="M65 34v680h76c23 0 34 -11 34 -34v-578h281v612h76c23 0 35 -11 35 -34v-578h42c24 0 33 -10 33 -34v-170h-75c-23 0 -35 11 -35 34v68h-433c-23 0 -34 11 -34 34z" />
    <glyph glyph-name="afii10041" unicode="&#x427;" horiz-adv-x="563" 
d="M388 714h76c23 0 34 -11 34 -34v-680h-76c-23 0 -34 11 -34 34v187h-111c-170 0 -229 37 -229 222v271h77c22 0 33 -11 33 -34v-237c0 -103 17 -120 119 -120h111v391z" />
    <glyph glyph-name="afii10042" unicode="&#x428;" horiz-adv-x="921" 
d="M822 0h-723c-23 0 -34 11 -34 34v680h77c24 0 33 -10 33 -34v-578h230v612h76c23 0 35 -11 35 -34v-578h229v578c0 23 11 34 34 34h77v-680c0 -23 -11 -34 -34 -34z" />
    <glyph glyph-name="afii10043" unicode="&#x429;" horiz-adv-x="981" 
d="M822 0h-723c-23 0 -34 11 -34 34v680h77c24 0 33 -10 33 -34v-578h230v612h76c23 0 35 -11 35 -34v-578h229v578c0 23 11 34 34 34h77v-612h42c23 0 35 -11 35 -34v-170h-77c-23 0 -34 11 -34 34v68z" />
    <glyph glyph-name="afii10044" unicode="&#x42a;" horiz-adv-x="631" 
d="M48 714h162c23 0 34 -11 34 -34v-237h110c187 0 229 -46 229 -222c0 -175 -42 -221 -229 -221h-187c-23 0 -34 11 -34 34v578h-51c-23 0 -34 12 -34 35v67zM244 102h110c110 0 119 8 119 119s-9 119 -119 119h-110v-238z" />
    <glyph glyph-name="afii10045" unicode="&#x42b;" horiz-adv-x="780" 
d="M604 0v680c0 23 11 34 34 34h77v-680c0 -23 -12 -34 -35 -34h-76zM287 0h-187c-23 0 -35 11 -35 34v680h77c24 0 33 -10 33 -34v-237h112c187 0 229 -46 229 -222c0 -175 -42 -221 -229 -221zM175 102h112c110 0 119 8 119 119s-9 119 -119 119h-112v-238z" />
    <glyph glyph-name="afii10046" unicode="&#x42c;" 
d="M287 0h-187c-23 0 -35 11 -35 34v680h77c24 0 33 -10 33 -34v-237h112c187 0 229 -46 229 -222c0 -175 -42 -221 -229 -221zM175 102h112c110 0 119 8 119 119s-9 119 -119 119h-112v-238z" />
    <glyph glyph-name="afii10047" unicode="&#x42d;" horiz-adv-x="547" 
d="M168 612h-94c-23 0 -34 11 -34 34v68h128c260 0 331 -46 331 -315v-85c0 -269 -71 -314 -331 -314h-128v68c0 23 11 34 34 34h94c204 0 221 8 221 212h-213c-23 0 -34 11 -34 34v68h247c0 188 -23 196 -221 196z" />
    <glyph glyph-name="afii10048" unicode="&#x42e;" horiz-adv-x="852" 
d="M65 0v680c0 23 11 34 34 34h76v-306h102c3 262 71 314 263 314c191 0 264 -53 264 -322v-86c0 -268 -71 -322 -264 -322c-192 0 -263 54 -263 322v9h-102v-289c0 -23 -11 -34 -34 -34h-76zM694 314v86c0 204 -18 220 -154 220c-135 0 -152 -16 -152 -220v-86
c0 -204 17 -220 152 -220c136 0 154 16 154 220z" />
    <glyph glyph-name="afii10049" unicode="&#x42f;" horiz-adv-x="593" 
d="M269 714h220c23 0 34 -11 34 -34v-680h-77c-22 0 -33 11 -33 34v222h-120l-125 -227c-11 -19 -29 -29 -53 -29h-52v42c0 27 11 44 22 64l91 157c-109 24 -138 93 -138 222c0 158 43 229 231 229zM413 612h-144c-112 0 -120 -26 -120 -127c0 -102 8 -127 120 -127h144v254
z" />
    <glyph glyph-name="afii10065" unicode="&#x430;" horiz-adv-x="534" 
d="M144 161c0 -68 11 -85 94 -85c105 0 136 34 136 102v60h-153c-60 0 -77 -9 -77 -77zM476 297v-297h-60c-24 0 -29 10 -34 34l-8 40l-20 -40c-16 -35 -48 -43 -133 -43c-120 0 -171 34 -171 170v26c0 101 42 136 137 136c51 0 129 -4 181 -9c0 108 -25 119 -122 119h-128
c-23 0 -34 11 -34 34v60h162c179 0 230 -42 230 -230z" />
    <glyph glyph-name="afii10066" unicode="&#x431;" horiz-adv-x="567" 
d="M171 476v-15l14 30c19 41 45 44 130 44c152 0 204 -51 204 -272s-51 -272 -238 -272c-144 0 -221 43 -221 264v153c0 255 34 323 247 323h153v-59c0 -23 -11 -34 -34 -34h-119c-118 0 -136 -14 -136 -162zM409 263c0 171 -21 179 -128 179c-108 0 -110 -42 -110 -170v-17
c0 -136 21 -170 110 -170c107 0 128 8 128 178z" />
    <glyph glyph-name="afii10067" unicode="&#x432;" horiz-adv-x="524" 
d="M374 162c0 51 -8 59 -60 59h-144v-127h144c52 0 60 16 60 68zM94 527h204c127 0 162 -42 162 -144c0 -67 -21 -95 -77 -114c67 -4 93 -53 93 -125c0 -92 -47 -144 -162 -144h-254v493c0 23 11 34 34 34zM170 433v-127h128c49 0 60 13 60 64s-11 63 -60 63h-128z" />
    <glyph glyph-name="afii10068" unicode="&#x433;" horiz-adv-x="410" 
d="M110 527h264v-59c0 -24 -9 -35 -33 -35h-171v-399c0 -24 -9 -34 -33 -34h-77v476c0 41 10 51 50 51z" />
    <glyph glyph-name="afii10069" unicode="&#x434;" horiz-adv-x="620" 
d="M115 94l41 403c3 24 17 30 32 30h261c15 0 29 -6 32 -30l42 -403h61v-60c0 -24 -9 -34 -33 -34h-515v60c0 23 11 34 34 34h45zM218 94h202c-1 7 -2 9 -2 16l-34 323h-131l-32 -323c-1 -7 -3 -9 -3 -16z" />
    <glyph glyph-name="afii10070" unicode="&#x435;" horiz-adv-x="512" 
d="M151 314h211v17c0 94 -10 111 -102 111c-89 0 -106 -11 -109 -128zM431 229h-280c3 -128 25 -135 161 -135h102c23 0 34 -12 34 -35v-59h-153c-213 0 -247 95 -247 263c0 205 59 272 212 272c137 0 204 -50 204 -221v-51c0 -24 -9 -34 -33 -34z" />
    <glyph glyph-name="afii10072" unicode="&#x436;" horiz-adv-x="798" 
d="M343 0v238h-5l-177 -218c-15 -19 -27 -20 -42 -20h-59v60c0 14 4 25 11 32l177 183l-164 151c-11 10 -16 24 -16 42v59h59c16 0 22 -3 34 -15l177 -198h5v179c0 23 12 34 35 34h76v-213h6l176 198c12 12 18 15 34 15h60v-59c0 -18 -5 -32 -16 -42l-164 -151l177 -183
c7 -7 11 -18 11 -32v-60h-60c-15 0 -26 1 -42 20l-176 218h-6v-204c0 -23 -11 -34 -34 -34h-77z" />
    <glyph glyph-name="afii10073" unicode="&#x437;" horiz-adv-x="461" 
d="M278 93l-107 137c-17 22 -17 45 0 68l107 136h-196c-23 0 -34 11 -34 34v59h331c23 0 34 -11 34 -34v-49l-141 -180l141 -181v-49c0 -23 -11 -34 -34 -34h-331v59c0 23 11 34 34 34h196z" />
    <glyph glyph-name="afii10074" unicode="&#x438;" horiz-adv-x="562" 
d="M391 331l-237 -331h-60c-23 0 -34 11 -34 34v493h77c22 0 33 -11 33 -34v-297l238 331h60c23 0 34 -11 34 -34v-493h-76c-23 0 -35 11 -35 34v297z" />
    <glyph glyph-name="afii10075" unicode="&#x439;" horiz-adv-x="550" 
d="M391 331l-237 -331h-60c-23 0 -34 11 -34 34v493h77c22 0 33 -11 33 -34v-297l238 331h60c23 0 34 -11 34 -34v-493h-76c-23 0 -35 11 -35 34v297zM273 612c-103 0 -137 35 -137 119v51h52c24 0 33 -9 33 -33c0 -56 12 -60 52 -60c37 0 50 4 50 60c0 24 11 33 34 33h51
v-51c0 -84 -34 -119 -135 -119z" />
    <glyph glyph-name="afii10076" unicode="&#x43a;" horiz-adv-x="491" 
d="M60 0v493c0 23 12 34 35 34h77v-213h4l178 198c11 12 17 15 32 15h60v-59c0 -19 -3 -31 -15 -42l-165 -151l178 -183c7 -7 11 -18 11 -32v-60h-59c-16 0 -27 1 -42 20l-178 218h-4v-204c0 -23 -12 -34 -35 -34h-77z" />
    <glyph glyph-name="afii10077" unicode="&#x43b;" horiz-adv-x="572" 
d="M116 94l41 398c3 29 17 35 33 35h289c22 0 33 -11 33 -34v-493h-76c-23 0 -34 11 -34 34v399h-137l-31 -314c-8 -69 -28 -119 -146 -119h-52v60c0 23 11 34 34 34h46z" />
    <glyph glyph-name="afii10078" unicode="&#x43c;" horiz-adv-x="665" 
d="M493 346l-122 -204c-9 -13 -16 -18 -39 -18s-31 5 -38 18l-124 204v-312c0 -23 -9 -34 -33 -34h-77v493c0 23 11 34 34 34h85l153 -257l153 257h85c23 0 35 -11 35 -34v-493h-77c-23 0 -35 11 -35 34v312z" />
    <glyph glyph-name="afii10079" unicode="&#x43d;" horiz-adv-x="532" 
d="M172 229v-229h-77c-23 0 -35 11 -35 34v493h77c23 0 35 -11 35 -34v-170h189v204h77c23 0 34 -11 34 -34v-493h-76c-23 0 -35 11 -35 34v195h-189z" />
    <glyph glyph-name="afii10080" unicode="&#x43e;" horiz-adv-x="538" 
d="M269 442c-111 0 -119 -16 -119 -179c0 -161 8 -178 119 -178c110 0 119 17 119 178c0 163 -9 179 -119 179zM269 -8c-179 0 -221 51 -221 271c0 221 42 272 221 272s221 -51 221 -272c0 -220 -42 -271 -221 -271z" />
    <glyph glyph-name="afii10081" unicode="&#x43f;" horiz-adv-x="511" 
d="M341 433h-169v-399c0 -23 -12 -34 -35 -34h-77v493c0 23 12 34 35 34h323c24 0 33 -10 33 -34v-493h-75c-23 0 -35 11 -35 34v399z" />
    <glyph glyph-name="afii10082" unicode="&#x440;" horiz-adv-x="568" 
d="M409 263c0 171 -21 179 -128 179c-89 0 -110 -34 -110 -170v-17c0 -128 21 -170 110 -170c107 0 128 8 128 178zM162 435l23 47c19 41 45 53 130 53c154 0 205 -51 205 -272s-51 -272 -205 -272c-93 0 -108 17 -121 45l-23 47v-287h-77c-23 0 -34 11 -34 34v697h60
c24 0 30 -10 34 -34z" />
    <glyph glyph-name="afii10083" unicode="&#x441;" horiz-adv-x="458" 
d="M423 0h-94c-230 0 -281 42 -281 263s52 264 281 264h94v-60c0 -23 -11 -34 -34 -34h-60c-160 0 -179 -8 -179 -170c0 -161 19 -170 179 -170h60c23 0 34 -11 34 -34v-59z" />
    <glyph glyph-name="afii10084" unicode="&#x442;" horiz-adv-x="430" 
d="M71 527h323v-59c0 -23 -12 -35 -35 -35h-93v-399c0 -23 -11 -34 -34 -34h-77v433h-119v60c0 23 12 34 35 34z" />
    <glyph glyph-name="afii10085" unicode="&#x443;" 
d="M48 493v34h68c33 0 40 -9 47 -36l91 -406h74l73 403c5 28 14 39 47 39h68v-34c0 -23 -4 -54 -8 -77l-113 -496c-19 -88 -59 -124 -160 -124h-145v59c0 23 12 35 35 35h98c57 0 71 4 79 54l10 54c-12 -3 -31 -5 -46 -5c-82 0 -103 50 -124 126l-86 306c-7 21 -8 45 -8 68z
" />
    <glyph glyph-name="afii10086" unicode="&#x444;" horiz-adv-x="904" 
d="M745 263c0 171 -21 179 -127 179c-91 0 -111 -34 -111 -170v-17c0 -128 20 -170 111 -170c106 0 127 8 127 178zM158 263c0 -170 21 -178 128 -178c91 0 110 34 110 170v17c0 128 -19 170 -110 170c-107 0 -128 -8 -128 -179zM396 74l-14 -30c-22 -41 -43 -53 -130 -53
c-152 0 -204 51 -204 272s52 272 204 272c92 0 113 -17 126 -44l18 -38v278h77c23 0 34 -11 34 -34v-244l14 29c22 41 45 53 131 53c152 0 204 -51 204 -272s-52 -272 -204 -272c-94 0 -113 17 -126 45l-19 38v-278h-77c-23 0 -34 11 -34 34v244z" />
    <glyph glyph-name="afii10087" unicode="&#x445;" horiz-adv-x="562" 
d="M68 493v34h51c32 0 43 -4 56 -25l103 -171h5l103 171c15 21 24 25 57 25h50v-34c0 -37 -7 -53 -20 -69l-127 -156l136 -165c16 -20 20 -34 20 -61v-42h-42c-35 0 -45 6 -60 29l-117 167h-5l-116 -167c-16 -23 -25 -29 -60 -29h-42v42c0 27 4 41 19 61l137 165l-126 156
c-15 16 -22 32 -22 69z" />
    <glyph glyph-name="afii10088" unicode="&#x446;" horiz-adv-x="559" 
d="M170 94h162v399c0 23 11 34 34 34h77v-433h33c23 0 35 -11 35 -34v-162h-77c-24 0 -33 10 -33 34v68h-306c-23 0 -35 11 -35 34v493h77c24 0 33 -10 33 -34v-399z" />
    <glyph glyph-name="afii10089" unicode="&#x447;" horiz-adv-x="486" 
d="M426 493v-493h-77c-22 0 -33 11 -33 34v128h-77c-153 0 -179 50 -179 178v187h77c23 0 35 -11 35 -34v-153c0 -68 7 -76 67 -76h77v263h76c23 0 34 -11 34 -34z" />
    <glyph glyph-name="afii10090" unicode="&#x448;" horiz-adv-x="740" 
d="M170 94h144v433h77c23 0 34 -11 34 -34v-399h145v399c0 23 11 34 34 34h76v-493c0 -23 -11 -34 -33 -34h-553c-23 0 -34 11 -34 34v493h76c23 0 34 -11 34 -34v-399z" />
    <glyph glyph-name="afii10091" unicode="&#x449;" horiz-adv-x="797" 
d="M170 94h146v433h75c23 0 35 -11 35 -34v-399h144v399c0 23 11 34 34 34h76v-433h35c23 0 34 -11 34 -34v-162h-77c-23 0 -34 11 -34 34v68h-544c-23 0 -34 11 -34 34v493h77c24 0 33 -10 33 -34v-399z" />
    <glyph glyph-name="afii10092" unicode="&#x44a;" horiz-adv-x="556" 
d="M406 170c0 68 -9 77 -77 77h-85v-153h85c68 0 77 8 77 76zM133 34v399h-50c-23 0 -35 12 -35 35v59h162c23 0 34 -11 34 -34v-153h85c137 0 179 -34 179 -170s-59 -170 -179 -170h-161c-23 0 -35 11 -35 34z" />
    <glyph glyph-name="afii10093" unicode="&#x44b;" horiz-adv-x="672" 
d="M612 493v-493h-77c-22 0 -33 11 -33 34v493h76c23 0 34 -11 34 -34zM170 493v-153h86c136 0 178 -34 178 -170s-60 -170 -178 -170h-161c-23 0 -35 11 -35 34v493h77c24 0 33 -10 33 -34zM170 94h86c68 0 76 8 76 76s-8 77 -76 77h-86v-153z" />
    <glyph glyph-name="afii10094" unicode="&#x44c;" horiz-adv-x="482" 
d="M170 493v-153h86c136 0 178 -34 178 -170s-60 -170 -178 -170h-161c-23 0 -35 11 -35 34v493h77c24 0 33 -10 33 -34zM170 94h86c68 0 76 8 76 76s-8 77 -76 77h-86v-153z" />
    <glyph glyph-name="afii10095" unicode="&#x44d;" horiz-adv-x="406" 
d="M69 94h86c107 0 129 13 134 128h-146c-23 0 -35 12 -35 35v59h181c-5 105 -30 117 -134 117h-86c-23 0 -34 12 -34 35v59h120c186 0 246 -67 246 -263s-60 -264 -246 -264h-120v60c0 23 11 34 34 34z" />
    <glyph glyph-name="afii10096" unicode="&#x44e;" horiz-adv-x="755" 
d="M486 443c-110 0 -119 -19 -119 -179c0 -163 9 -179 119 -179s119 16 119 179c0 160 -9 179 -119 179zM172 323h94c8 171 58 212 220 212c179 0 221 -51 221 -271c0 -221 -42 -272 -221 -272c-169 0 -216 45 -221 237h-93v-229h-77c-23 0 -35 11 -35 34v493h77
c23 0 35 -11 35 -34v-170z" />
    <glyph glyph-name="afii10097" unicode="&#x44f;" horiz-adv-x="458" 
d="M138 358c0 -68 9 -77 77 -77h85v152h-85c-68 0 -77 -8 -77 -75zM300 187h-59l-81 -149c-21 -35 -30 -38 -64 -38h-52v42c0 31 6 41 21 64l67 99c-72 19 -96 64 -96 153c0 135 51 169 179 169h161c23 0 34 -11 34 -34v-493h-76c-23 0 -34 11 -34 34v153z" />
    <glyph glyph-name="afii10071" unicode="&#x451;" horiz-adv-x="512" 
d="M151 314h211v17c0 94 -10 111 -102 111c-89 0 -106 -11 -109 -128zM431 229h-280c3 -128 25 -135 161 -135h102c23 0 34 -12 34 -35v-59h-153c-213 0 -247 95 -247 263c0 205 59 272 212 272c137 0 204 -50 204 -221v-51c0 -24 -9 -34 -33 -34zM320 722h77v-75
c0 -23 -12 -35 -35 -35h-75v77c0 24 9 33 33 33zM108 722h77c23 0 33 -9 33 -33v-77h-76c-23 0 -34 12 -34 35v75z" />
    <glyph glyph-name="afii10099" unicode="&#x452;" horiz-adv-x="595" 
d="M96 34v604h-42c-23 0 -34 11 -34 34v59h153c23 0 34 -11 34 -34v-236l15 30c13 27 37 44 138 44c136 0 187 -34 187 -178v-340c0 -136 -35 -221 -195 -221h-51v59c0 23 11 34 34 34c92 0 102 6 102 128v340c0 68 -21 85 -102 85c-107 0 -128 -35 -128 -128v-314h-76
c-23 0 -35 11 -35 34z" />
    <glyph glyph-name="afii10100" unicode="&#x453;" horiz-adv-x="422" 
d="M110 527h264v-59c0 -24 -9 -35 -33 -35h-171v-399c0 -24 -9 -34 -33 -34h-77v476c0 41 10 51 50 51zM276 704l-85 -78c-11 -9 -17 -14 -32 -14h-34v35c0 20 2 26 13 41l64 91c17 25 21 29 42 29h51v-51c0 -31 -3 -38 -19 -53z" />
    <glyph glyph-name="afii10101" unicode="&#x454;" horiz-adv-x="449" 
d="M289 94h86c23 0 34 -11 34 -34v-60h-120c-186 0 -246 68 -246 264s60 263 246 263h120v-59c0 -23 -11 -35 -34 -35h-86c-104 0 -129 -12 -134 -117h181v-59c0 -23 -12 -35 -35 -35h-146c3 -115 29 -128 134 -128z" />
    <glyph glyph-name="afii10102" unicode="&#x455;" horiz-adv-x="470" 
d="M48 374c0 101 52 153 187 153h171v-59c0 -23 -11 -35 -34 -35h-137c-71 0 -93 -14 -93 -59v-38l168 -37c103 -24 112 -56 112 -147c0 -93 -50 -152 -187 -152h-187v59c0 23 12 35 35 35h152c72 0 94 14 94 67v38l-167 37c-103 24 -114 53 -114 138z" />
    <glyph glyph-name="afii10103" unicode="&#x456;" horiz-adv-x="230" 
d="M170 493v-493h-76c-23 0 -34 11 -34 34v493h76c23 0 34 -11 34 -34z" />
    <glyph glyph-name="afii10104" unicode="&#x457;" horiz-adv-x="230" 
d="M182 722h77v-75c0 -23 -12 -35 -35 -35h-75v77c0 24 9 33 33 33zM-30 722h77c23 0 33 -9 33 -33v-77h-76c-23 0 -34 12 -34 35v75zM170 493v-493h-76c-23 0 -34 11 -34 34v493h76c23 0 34 -11 34 -34z" />
    <glyph glyph-name="afii10105" unicode="&#x458;" horiz-adv-x="212" 
d="M42 17v476c0 23 12 34 35 34h75v-510c0 -136 -32 -221 -195 -221h-51v59c0 23 11 35 34 35c94 0 102 7 102 127z" />
    <glyph glyph-name="afii10106" unicode="&#x459;" horiz-adv-x="803" 
d="M576 0h-161c-23 0 -35 11 -35 34v399h-127l-32 -314c-8 -69 -45 -119 -163 -119h-34v60c0 23 11 34 34 34h46l40 398c4 29 17 35 32 35h281c23 0 34 -11 34 -34v-153h85c137 0 179 -34 179 -170s-59 -170 -179 -170zM491 247v-153h85c68 0 77 8 77 76s-9 77 -77 77h-85z
" />
    <glyph glyph-name="afii10107" unicode="&#x45a;" horiz-adv-x="763" 
d="M170 229v-229h-75c-23 0 -35 11 -35 34v493h77c24 0 33 -10 33 -34v-170h171v204h77c24 0 33 -10 33 -34v-153h85c137 0 179 -34 179 -170s-59 -170 -179 -170h-160c-23 0 -35 11 -35 34v195h-171zM536 247h-85v-153h85c68 0 77 8 77 76s-9 77 -77 77z" />
    <glyph glyph-name="afii10108" unicode="&#x45b;" horiz-adv-x="595" 
d="M96 34v604h-42c-23 0 -34 11 -34 34v59h153c23 0 34 -11 34 -34v-236l14 30c13 27 38 44 139 44c136 0 187 -34 187 -178v-357h-77c-23 0 -34 11 -34 34v323c0 68 -20 85 -102 85c-106 0 -127 -35 -127 -128v-314h-77c-23 0 -34 11 -34 34z" />
    <glyph glyph-name="afii10109" unicode="&#x45c;" horiz-adv-x="491" 
d="M60 0v493c0 23 12 34 35 34h77v-213h4l178 198c11 12 17 15 32 15h60v-59c0 -19 -3 -31 -15 -42l-165 -151l178 -183c7 -7 11 -18 11 -32v-60h-59c-16 0 -27 1 -42 20l-178 218h-4v-204c0 -23 -12 -34 -35 -34h-77zM325 704l-85 -78c-11 -9 -17 -14 -32 -14h-34v35
c0 20 2 26 13 41l64 91c17 25 21 29 42 29h51v-51c0 -31 -3 -38 -19 -53z" />
    <glyph glyph-name="afii10110" unicode="&#x45e;" 
d="M48 493v34h68c33 0 40 -9 47 -36l91 -406h74l73 403c5 28 14 39 47 39h68v-34c0 -23 -4 -54 -8 -77l-113 -496c-19 -88 -59 -124 -160 -124h-145v59c0 23 12 35 35 35h98c57 0 71 4 79 54l10 54c-12 -3 -31 -5 -46 -5c-82 0 -103 50 -124 126l-86 306c-7 21 -8 45 -8 68z
M284 612c-103 0 -137 35 -137 119v51h52c24 0 33 -9 33 -33c0 -56 12 -60 52 -60c37 0 50 4 50 60c0 24 11 33 34 33h51v-51c0 -84 -34 -119 -135 -119z" />
    <glyph glyph-name="afii10193" unicode="&#x45f;" horiz-adv-x="511" 
d="M172 94h169v399c0 23 12 34 35 34h75v-493c0 -24 -9 -34 -33 -34h-102v-102h-77c-23 0 -34 11 -34 34v68h-110c-23 0 -35 11 -35 34v493h77c23 0 35 -11 35 -34v-399z" />
    <glyph glyph-name="afii61352" unicode="&#x2116;" horiz-adv-x="1125" 
d="M498 145v535c0 23 12 34 35 34h76v-714h-119c-35 0 -43 7 -52 26l-263 544v-536c0 -23 -11 -34 -33 -34h-77v714h119c33 0 43 -7 51 -26zM889 629c-68 0 -77 -10 -77 -111c0 -100 9 -110 77 -110s77 10 77 110c0 101 -9 111 -77 111zM889 314c-152 0 -187 52 -187 204
c0 155 35 204 187 204c155 0 187 -49 187 -204c0 -152 -32 -204 -187 -204z" />
    <glyph glyph-name="afii10050" unicode="&#x490;" horiz-adv-x="552" 
d="M465 612h-290v-578c0 -24 -9 -34 -33 -34h-77v680c0 23 12 34 35 34h288v78c0 23 12 34 35 34h75v-180c0 -24 -9 -34 -33 -34z" />
    <glyph glyph-name="afii10098" unicode="&#x491;" horiz-adv-x="500" 
d="M70 0v493c0 23 12 34 35 34h225v49c0 23 12 34 35 34h75v-143c0 -24 -9 -34 -33 -34h-225v-399c0 -23 -12 -34 -35 -34h-77z" />
    <glyph glyph-name="_224" horiz-adv-x="0" 
 />
    </font>
</defs>
</svg>
